<svg width="590" height="354" viewBox="0 0 590 354" fill="none" xmlns="http://www.w3.org/2000/svg">
<path d="M585.391 82.4851L559.588 271.103C553.393 316.371 509.037 353.406 461.014 353.406H108.049C60.0274 353.406 25.805 316.371 31.9975 271.103L57.8062 82.4851C63.9987 37.2191 108.355 0.182785 156.376 0.182785H509.345C557.364 0.182785 591.586 37.2191 585.391 82.4851Z" fill="#4CB050"/>
<path d="M315.472 0.184174L270.341 353.406L270.336 353.449L260.54 353.447L85.1898 353.406C31.944 353.406 -6.00174 316.371 0.865586 271.104L29.4805 82.4857C36.3465 37.2198 85.5291 0.184174 138.775 0.184174H315.472Z" fill="#F5E0D4"/>
<path d="M333.006 3.05176e-05L281.84 353.222H273.799L273.797 353.265L264 353.263L264.003 353.222L315.171 3.05176e-05H333.006Z" fill="#FFFFFB"/>
<path d="M183.761 159.124H173.076C172.321 159.049 171.572 158.99 170.838 158.99C165.538 158.99 160.239 158.99 154.939 158.99C152.931 158.99 150.924 158.99 148.916 158.99C148.174 158.99 147.799 158.093 148.321 157.564C148.845 157.035 149.371 156.512 149.67 155.839C150.195 154.659 149.908 153.293 150.029 152.004C150.162 150.581 150.827 149.212 151.864 148.228C152.839 147.303 154.129 146.701 154.901 145.601C155.431 144.844 155.662 143.926 155.985 143.06C157.82 138.127 163.058 134.703 168.307 135.158C170.252 135.326 172.212 135.661 173.974 136.501C175.318 137.141 177.028 138.302 177.624 139.741C178.286 141.339 178.241 142.963 179.283 144.509C180.219 145.901 181.529 147.074 182.109 148.648C182.721 150.307 182.457 153.007 183.388 154.508C183.775 155.131 184.34 155.627 184.743 156.24C185.146 156.854 185.366 157.682 184.986 158.31C184.725 158.742 184.253 158.968 183.761 159.124Z" fill="#3B3838"/>
<path d="M188.384 176.055C188.285 176.435 188.146 176.805 187.981 177.145C186.301 180.574 182.813 182.771 179.229 184.069C172.108 186.644 163.614 186.002 157.113 182.028C155.241 180.883 150.751 177.879 150.161 175.177C149.235 173.884 148.639 172.418 148.602 170.801C148.565 169.166 149.995 168.316 151.393 167.837C152.967 167.297 154.532 167.306 156.104 167.115L149.274 167.051C149.317 167.051 151.609 166.813 151.652 166.813C154.777 167.169 160.451 167.051 161.962 162.069L163.509 151.796L164.312 152.851L164.325 152.75L164.345 152.53L167.392 153.238H167.398L167.76 153.321L172.667 154.456L172.799 154.487V164.528C172.799 166.214 173.449 167.84 174.636 169.034C175.825 170.23 177.306 171.203 178.837 171.974C179.936 172.527 181.064 172.975 182.127 173.322C183.214 173.678 184.442 173.787 185.453 174.341C186.433 174.879 187.444 175.441 188.384 176.055Z" fill="#EC8872"/>
<path d="M221.174 211.065C221.196 211.03 221.219 210.99 221.243 210.952C221.273 210.865 221.306 210.777 221.337 210.692C221.278 210.813 221.229 210.94 221.174 211.065ZM215.844 219.382C216.249 214.56 218.148 210.737 220.335 206.56C222.595 202.244 229.557 184.442 234.419 187.487C239.566 190.71 230.717 218.452 227.111 224.805C225.753 227.196 222.501 230.535 220.147 230.101C218.177 229.735 216.812 227.389 216.24 225.034C215.785 223.16 215.686 221.265 215.844 219.382Z" fill="#EC8872"/>
<path d="M101.445 347.61L112.801 287.074C112.928 286.397 113.558 285.96 114.25 286.073L120.203 287.053C121.031 287.187 121.58 288.037 121.351 288.827L104.041 348.387C103.879 348.944 103.366 349.307 102.778 349.281C101.934 349.243 101.29 348.436 101.445 347.61Z" fill="#F3C16E"/>
<path d="M138.297 347.235L144.872 286.014C144.946 285.327 145.542 284.888 146.242 285.002L152.273 285.991C153.111 286.13 153.727 286.989 153.56 287.787L140.954 348.018C140.836 348.583 140.352 348.951 139.762 348.925C138.915 348.885 138.207 348.068 138.297 347.235Z" fill="#F3C16E"/>
<path d="M211.433 347.254L200.079 286.717C199.951 286.038 199.32 285.604 198.629 285.717L192.676 286.694C191.849 286.831 191.3 287.68 191.529 288.471L208.838 348.028C209.001 348.587 209.512 348.951 210.102 348.925C210.945 348.885 211.589 348.077 211.433 347.254Z" fill="#F3C16E"/>
<path d="M105.203 187.151C106.243 186.196 107.372 185.344 108.599 184.699C108.697 184.692 108.798 184.688 108.901 184.683C108.316 185.153 107.713 185.587 107.124 185.983C106.537 186.38 105.889 186.788 105.203 187.151Z" fill="#3B3838"/>
<path d="M107.447 186.736C108.377 186.12 109.33 185.419 110.205 184.631C112.062 184.567 114.089 184.544 114.59 184.544H161.908C166.82 184.544 171.952 188.282 171.952 193.2V269.591H214.129C220.553 269.591 226.063 274.622 226.183 281.056C226.303 287.61 221.034 292.953 214.513 292.953H129.308C121.332 292.953 114.58 286.404 114.58 278.417L105.417 193.2C105.417 191.322 104.949 189.62 104.828 188.225C105.766 187.793 106.653 187.26 107.447 186.736Z" fill="#3B3838"/>
<path d="M157.903 281.146C158.023 287.751 152.752 293.134 146.233 293.134H124.611C112.691 293.134 102.938 283.291 102.938 271.259V191.451C102.938 191.199 102.948 190.949 102.969 190.701C103.618 183.054 114.708 182.299 116.592 189.736C116.732 190.29 116.807 190.864 116.807 191.451V262.464C116.807 266.4 119.97 269.591 123.872 269.591H145.849C152.273 269.591 157.783 274.663 157.903 281.146Z" fill="#3B3838"/>
<path d="M178.121 351.129L192.115 352.087C192.115 352.087 201.012 353.31 208.409 353.444C215.809 353.581 207.742 349.201 207.742 349.201L205.574 347.57L194.133 338.947C196.657 324.515 211.963 288.058 216.507 263.802C216.717 262.667 216.818 261.529 216.794 260.389C216.707 251.214 209.616 242.206 200.616 237.896C197.267 236.294 193.645 235.34 190.027 235.274L191.658 234.495L173.356 343.452L173.24 345.791C173.107 348.408 175.424 350.942 178.121 351.129Z" fill="#F49A7A"/>
<path d="M178.121 351.129L192.115 352.087C192.115 352.087 201.012 353.31 208.409 353.444C215.809 353.581 207.742 349.201 207.742 349.201L205.574 347.57L173.356 343.452L173.24 345.791C173.107 348.408 175.424 350.942 178.121 351.129Z" fill="#646464"/>
<path d="M239.805 349.493L253.891 350.194C253.891 350.194 262.797 351.247 270.272 351.247C277.75 351.247 269.94 347.032 269.94 347.032L267.878 345.448L256.992 337.066C252.236 307.953 241.773 247.95 243.201 260.137C243.338 261.303 243.472 257.829 243.17 256.731C240.052 245.361 237.967 238.748 229.205 234.623C225.945 233.086 222.359 232.201 218.701 232.201L210.398 232.77L235.601 341.934L235.297 344.266C234.95 346.876 237.092 349.357 239.805 349.493Z" fill="#EC8872"/>
<path d="M239.803 349.465L253.889 350.178C253.889 350.178 262.795 351.247 270.27 351.247C277.748 351.247 269.938 346.966 269.938 346.966L267.876 345.356L235.599 341.786L235.295 344.153C234.948 346.805 237.09 349.328 239.803 349.465Z" fill="#646464"/>
<path d="M164.025 254.301C164.107 254.343 164.189 254.388 164.276 254.43C164.155 254.352 164.035 254.282 163.914 254.208C163.948 254.237 163.986 254.265 164.025 254.301Z" fill="#EC8872"/>
<path d="M246.401 271.311L243.983 254.57C242.034 241.068 229.117 230.372 214.76 230.372H186.782L155.93 229.872C150.173 229.919 135.882 229.565 135.741 230.155C135.02 233.19 135.877 241.153 136.245 244.464C136.65 248.087 137.708 251.509 139.264 254.645C144.435 265.069 154.903 271.311 166.008 271.311C166.008 271.311 241.758 271.311 242.043 271.311C242.112 271.311 246.401 271.311 246.401 271.311Z" fill="#4CB050"/>
<path d="M224.568 221.808C225.454 223.127 226.338 224.93 225.4 226.212C225.039 226.7 224.478 226.986 223.92 227.205C217.3 229.811 211.948 225.527 206.183 221.291C197.042 214.575 185.124 202.591 178.54 193.236C176.873 190.868 177.227 191.744 176.892 188.841C176.56 185.941 176.678 184.142 179.188 182.767C181.577 181.457 181.891 178.162 184.462 179.04C202.448 185.174 214.314 206.544 224.568 221.808Z" fill="#EC8872"/>
<path d="M172.796 154.487V162.265C170.519 160.755 168.784 158.73 167.878 156.424C167.508 155.49 167.255 154.48 167.172 153.444L172.664 154.456L172.796 154.487Z" fill="#3B3838"/>
<path d="M177.857 144.074C177.416 143.38 176.9 142.734 176.325 142.151C176.234 142.059 176.142 141.974 176.051 141.882C174.508 140.438 172.726 139.305 170.862 138.649C170.241 139.083 169.466 139.35 168.531 139.35C162.434 139.354 162.971 145.679 163.325 151.419C163.15 151.574 162.982 151.787 162.993 151.799C163.497 152.412 163.506 154.465 163.781 155.811C163.968 156.075 164.152 156.342 164.33 156.608C164.483 156.837 164.625 157.078 164.773 157.314C166.68 158.72 168.818 159.719 171.009 159.948C173.987 160.252 178.031 158.855 179.245 155.608C180.642 151.895 179.994 147.407 177.857 144.074Z" fill="#EC8872"/>
<path d="M175.658 150.538H175.658C175.585 150.373 175.659 150.18 175.824 150.107L176.164 149.955C176.308 149.892 176.386 149.734 176.349 149.58L175.072 146.531C175.029 146.354 175.137 146.177 175.312 146.135C175.487 146.092 175.663 146.201 175.706 146.375L177.114 149.955C177.149 150.111 177.071 150.269 176.928 150.333L176.088 150.704C175.924 150.777 175.731 150.704 175.658 150.538Z" fill="#3B3838"/>
<path d="M173.669 153.302C173.492 153.302 173.317 153.276 173.147 153.224C172.679 153.082 172.318 152.754 172.129 152.313C172.041 152.108 172.172 151.874 172.392 151.839L172.393 151.836C172.554 151.81 172.705 151.902 172.771 152.051C172.881 152.301 173.082 152.481 173.347 152.561C173.685 152.662 174.19 152.61 174.677 152.209C174.81 152.098 175.005 152.105 175.131 152.223C175.284 152.367 175.277 152.613 175.115 152.747C174.675 153.106 174.164 153.302 173.669 153.302Z" fill="#3B3838"/>
<path d="M178.283 147.433L178.434 147.395C178.674 147.338 178.82 147.095 178.761 146.857L178.724 146.706C178.653 146.408 178.351 146.227 178.054 146.297L178.01 146.309C177.713 146.382 177.529 146.685 177.602 146.98L177.614 147.024C177.684 147.322 177.986 147.506 178.283 147.433Z" fill="#3B3838"/>
<path d="M171.659 148.457C171.967 148.381 172.158 148.067 172.083 147.758C172.008 147.449 171.693 147.258 171.385 147.334L171.282 147.357C171.029 147.421 170.874 147.676 170.936 147.928L170.96 148.032C171.036 148.341 171.35 148.532 171.659 148.457Z" fill="#3B3838"/>
<path d="M165.509 153.309C165.615 155.195 164.425 156.951 162.586 157.524L163.032 152.745L165.498 153.309H165.509Z" fill="#3B3838"/>
<path d="M177.644 142.151C177.026 142.344 176.353 142.392 175.726 142.297C174.235 142.085 172.915 141.271 171.652 140.485C171.376 142.344 169.753 143.938 167.853 144.223C167.445 144.289 167.027 144.299 166.657 144.454C165.517 144.955 165.432 146.463 165.498 147.666C165.612 149.767 164.073 152.044 162.678 153.58C162.279 154.034 161.804 154.442 161.234 154.654C158.176 151.433 156.448 147.036 158.575 142.993C160.208 139.902 163.675 138.087 167.255 138.023C170.826 137.967 174.444 139.513 177.33 141.882C177.436 141.974 177.54 142.059 177.644 142.151Z" fill="#3B3838"/>
<path d="M160.909 153.08C161.385 155.032 163.348 156.226 165.296 155.749C167.243 155.275 168.436 153.307 167.961 151.357C167.486 149.408 165.522 148.211 163.574 148.688C161.627 149.165 160.434 151.131 160.909 153.08Z" fill="#EC8872"/>
<path d="M189.529 201.736C189.59 201.708 205.771 194.453 205.771 194.453C206.447 194.149 206.65 193.28 206.174 192.712C202.962 188.881 199.634 185.124 196.528 181.207C191.212 174.504 185.744 172.777 177.105 172.876C176.618 172.881 176.127 172.885 175.635 172.888C172.383 173.723 168.724 173.414 165.468 172.493C162.812 171.741 160.447 170.546 158.168 169.005C149.374 163.063 137.078 167.32 132.642 176.926C130.661 181.218 131.043 186.186 131.578 190.885C132.926 202.725 133.872 215.622 135.743 227.397C135.894 228.348 135.254 229.195 135.481 229.959H189.529V201.736Z" fill="#E3E7E5"/>
<path d="M59.3373 297.118C58.6567 297.658 57.8594 298.017 56.9394 298.142C52.1582 298.784 47.0011 298.14 42.1767 298.14C41.0446 295.461 39.9193 292.778 38.7249 290.132C36.3539 284.867 40.5452 280.135 34.999 275.531C33.2652 274.091 31.0134 273.237 29.956 271.101C27.9003 266.952 31.6342 260.644 28.6308 257.34C27.452 256.042 25.6237 255.825 24.3691 254.626C22.8544 253.18 22.524 250.633 22.7823 248.391C23.0408 246.149 23.7716 244.001 23.9623 241.75C24.5333 235.007 20.6262 232.905 17.4086 228.449C16.9057 227.75 16.5638 226.66 17.0973 225.995C17.3087 225.73 17.6156 225.601 17.9172 225.511C20.3962 224.777 22.973 226.36 24.8229 228.39C26.6729 230.42 28.1051 232.935 30.0986 234.779C34.4176 238.769 38.2265 239.619 37.6847 247.36C37.6234 248.238 37.4997 249.175 37.8621 249.949C38.2548 250.786 39.1001 251.181 39.887 251.48C43.2221 252.755 46.7303 253.498 49.8868 255.27C53.0436 257.043 55.9154 260.149 56.4487 264.135C56.966 268 55.2543 272.229 56.7808 275.727C57.6513 277.724 59.4052 278.998 60.5693 280.784C63.2965 284.971 63.2498 294.015 59.3373 297.118Z" fill="#0C7981"/>
<path d="M51.577 298.142L51.3114 298.163C51.3029 298.095 51.2946 298.029 51.288 297.961C50.6692 292.445 49.6365 286.894 48.6377 281.525L48.5953 281.299C47.6595 276.274 46.5987 270.58 43.8358 265.971C42.1494 263.155 39.8568 260.814 37.6396 258.549C35.155 256.012 32.5855 253.387 30.8336 250.069C29.6102 247.749 28.8222 245.155 28.0603 242.644C27.6825 241.401 27.2922 240.117 26.8544 238.885C25.2353 234.321 23.0684 231.352 20.4141 230.061L20.6217 229.499C23.4101 230.856 25.6727 233.936 27.3469 238.654C27.7897 239.9 28.1823 241.193 28.5622 242.444C29.3152 244.924 30.0941 247.49 31.2884 249.755C32.9987 252.993 35.5377 255.587 37.9931 258.093C40.2339 260.382 42.5509 262.749 44.2739 265.624C47.0967 270.334 48.169 276.093 49.115 281.171L49.1574 281.396C50.1585 286.779 51.1938 292.341 51.8157 297.887C51.8225 297.953 51.8301 298.015 51.8376 298.081L51.577 298.142Z" fill="#5AB8A0"/>
<path d="M120.79 231.975C120.092 232.688 119.21 233.23 118.364 233.806C117.871 234.139 117.392 234.481 116.963 234.878C113.423 238.151 114.51 243.598 112.445 247.77C110.6 251.502 106.482 253.798 102.86 256.259C99.2379 258.721 95.657 262.089 95.7927 266.171C95.8997 269.376 98.3033 272.173 98.8578 275.338C99.4555 278.757 97.8308 282.177 95.8276 285.132C92.7071 289.736 88.2552 293.795 84.4074 297.906C84.3685 297.949 84.3294 297.991 84.2882 298.034H68.6032C68.182 296.842 68.0199 295.504 67.9235 294.265C67.4752 288.502 65.8277 283.404 68.7471 278.148C71.1752 274.979 75.4238 272.919 76.7919 269.27C78.2648 265.352 76.0401 260.432 78.947 257.229C81.1986 254.749 85.4265 254.659 88.2471 252.71C92.1441 250.012 92.1915 244.842 94.1553 240.787C95.9509 237.073 99.6303 234.139 103.942 232.98C107.277 232.086 111.049 232.157 113.883 230.337C115.05 229.589 115.979 228.558 117.203 227.89C118.428 227.217 120.166 227.009 121.193 227.906C122.393 228.954 121.895 230.847 120.79 231.975Z" fill="#31A787"/>
<path d="M74.3156 296.896C69.3002 297.937 64.954 298.829 59.8254 298.232C58.8022 298.112 47.8352 297.262 47.6068 298.178C47.9132 296.245 47.7661 294.267 47.5377 292.372C47.3233 290.583 46.7315 288.61 47.2187 286.781C48.1326 283.357 51.4694 281.009 51.537 277.282C51.5988 273.891 49.1026 270.703 49.1735 267.252C49.2753 262.289 54.8606 258.82 55.1887 253.866C55.4682 249.644 51.8158 246.029 51.6506 241.802C51.4703 237.186 55.4783 233.879 55.8928 229.539C56.5275 222.891 51.9402 211.601 57.7162 206.312C58.0775 205.982 58.5144 205.668 59.0039 205.687C59.6432 205.713 60.1365 206.324 60.251 206.954C60.6799 209.314 59.1839 212.186 59.3126 214.693C59.45 217.371 60.0359 220.975 61.243 223.392C63.8657 229.745 70.2874 234.682 70.454 241.554C70.5414 245.167 68.8809 249.142 70.8292 252.184C71.5918 253.375 72.8088 254.201 73.6701 255.325C77.4827 260.285 72.7913 267.656 74.5921 273.653C75.2121 275.718 76.5693 277.466 77.5812 279.368C79.9193 283.765 80.3605 289.134 78.7718 293.856C78.5225 294.598 78.2029 295.353 77.5987 295.848C77.0105 296.33 76.2342 296.5 75.4897 296.653C75.0938 296.733 74.7026 296.816 74.3156 296.896Z" fill="#31A787"/>
<path d="M64.6942 297L64.1974 296.811C66.0584 291.907 66.4682 286.38 65.3512 281.254C64.9232 279.288 64.2681 277.336 63.6344 275.451C62.7723 272.883 61.8808 270.228 61.5407 267.486C61.2178 264.883 61.3958 262.225 61.568 259.655C61.6114 259.006 61.6564 258.336 61.6922 257.678C61.7651 256.344 61.8574 255.025 61.9465 253.753C62.3087 248.578 62.6512 243.69 61.6941 238.316C61.3852 236.582 60.8054 234.989 60.2448 233.448C59.7906 232.199 59.3207 230.908 58.9856 229.528C57.8289 224.767 57.7743 219.797 57.7212 214.992C57.7007 213.128 57.6795 211.202 57.5938 209.324L58.1247 209.3C58.211 211.186 58.2324 213.119 58.2529 214.985C58.3055 219.762 58.3599 224.701 59.5022 229.403C59.8302 230.752 60.295 232.029 60.7441 233.266C61.3128 234.828 61.9006 236.445 62.2171 238.222C63.1861 243.659 62.8416 248.58 62.4768 253.791C62.3877 255.06 62.2955 256.377 62.223 257.706C62.1867 258.367 62.1419 259.039 62.0983 259.691C61.9279 262.235 61.7516 264.866 62.0686 267.42C62.4018 270.108 63.2846 272.737 64.1382 275.281C64.7764 277.181 65.4363 279.147 65.8704 281.138C67.0093 286.366 66.5917 291.999 64.6942 297Z" fill="#0C7981"/>
<path d="M120.826 228.654C111.376 235.805 101.831 243.917 96.0195 254.78C95.3601 256.012 94.7499 257.279 94.1584 258.506C92.9544 261.01 91.7075 263.597 89.9654 266.051C89.0018 267.406 87.8883 268.72 86.8099 269.995C85.7602 271.231 84.6752 272.508 83.7469 273.808C81.9801 276.284 80.6488 278.974 79.6772 282.031C79.4099 282.868 79.1655 283.751 78.9478 284.655C78.43 286.817 77.4562 293.292 76.8072 298.034H75.1328C75.9855 293.828 77.7009 287.206 78.2924 284.74C78.5123 283.822 78.7628 282.925 79.034 282.073C80.0304 278.941 81.3966 276.182 83.2126 273.636C84.1659 272.303 85.2629 271.012 86.3251 269.759C87.3891 268.501 88.4925 267.203 89.4312 265.881C91.1322 263.486 92.3626 260.93 93.5523 258.456C94.1459 257.222 94.7603 255.948 95.4279 254.699C101.324 243.681 110.965 235.48 120.508 228.263L120.826 228.654Z" fill="#0C7981"/>
<path d="M42.3049 297.894L49.2118 348.663C49.4154 350.159 50.6913 351.275 52.1994 351.275H78.2855C79.8527 351.275 81.1586 350.072 81.2903 348.509L85.5775 297.548C85.62 297.042 85.2207 296.611 84.7157 296.615L43.1495 296.917C42.6318 296.922 42.2349 297.38 42.3049 297.894Z" fill="#4CB050"/>
<path d="M215.518 213.241C212.415 213.371 209.316 214.039 206.429 215.217C206.28 215.276 206.113 215.212 206.054 215.073C205.997 214.931 206.068 214.768 206.217 214.707C208.986 213.579 211.941 212.908 214.915 212.72C215.16 212.706 215.269 212.406 215.078 212.267L215.045 212.243C214.658 211.979 213.642 211.913 213.209 211.905C210.152 211.851 206.902 212.401 203.895 213.366C203.002 213.654 202.132 213.978 201.293 214.334C197.907 215.769 189.597 219.611 191.318 224.418C192.305 227.177 196.005 228.454 198.51 227.009C202.213 224.874 205.338 221.61 208.934 219.271C208.974 219.245 209.016 219.219 209.056 219.193C210.159 218.521 211.373 218.034 212.584 217.586C213.376 217.293 214.632 217.249 215.24 216.6C215.403 216.423 215.24 216.153 215 216.194C212.537 216.595 209.78 217.27 207.654 218.4C207.513 218.476 207.336 218.429 207.263 218.294C207.19 218.162 207.244 217.992 207.385 217.916C209.777 216.644 212.924 215.936 215.596 215.542C215.707 215.526 215.799 215.445 215.82 215.339C215.855 215.172 215.881 214.999 215.895 214.825C215.907 214.671 215.775 214.544 215.615 214.558C212.961 214.801 210.103 215.554 206.957 216.838C206.808 216.897 206.641 216.833 206.582 216.692C206.523 216.552 206.596 216.389 206.744 216.328C209.954 215.018 212.877 214.251 215.596 214.006C215.754 213.992 215.869 213.848 215.841 213.699C215.822 213.607 215.803 213.517 215.78 213.43C215.747 213.317 215.641 213.237 215.518 213.241Z" fill="#EC8872"/>
<path d="M198.68 217.603L162.385 213.963L154.665 190.262C148.922 190.451 140.9 190.387 135.148 190.368C136.294 196.447 137.684 201.706 138.289 203.896C141.25 214.617 143.929 227.614 154.813 228.961C155.055 228.992 155.297 229.02 155.539 229.049C167.456 230.448 179.558 229.978 191.294 227.998C193.66 227.599 196.149 227.066 197.912 225.232C201.522 221.478 200.926 219.106 198.68 217.603Z" fill="#EC8872"/>
<path d="M345.45 154.561L353.03 166.226L341.62 171.226L336.625 156.227L345.45 154.561Z" fill="#EC8872"/>
<path d="M453.694 343.652C453.694 346.012 451.785 347.924 449.432 347.924C447.073 347.924 445.164 346.012 445.164 343.652C445.164 341.295 447.073 339.381 449.432 339.381C451.785 339.381 453.694 341.295 453.694 343.652Z" fill="#8F8F8F"/>
<path d="M429.17 343.653C429.17 346.013 427.262 347.924 424.908 347.924C422.551 347.924 420.641 346.013 420.641 343.653C420.641 341.295 422.551 339.381 424.908 339.381C427.262 339.381 429.17 341.295 429.17 343.653Z" fill="#8F8F8F"/>
<path d="M438.768 328.112V259.579H435.566V328.112L423.156 342.612L425.588 344.695L437.169 331.165L448.75 344.695L451.179 342.612L438.768 328.112Z" fill="#8F8F8F"/>
<path d="M492.355 180.604C491.282 179.618 490.119 178.741 488.854 178.075C488.752 178.07 488.647 178.064 488.539 178.059C489.141 178.544 489.764 178.992 490.372 179.401C490.978 179.809 491.648 180.229 492.355 180.604Z" fill="#3B3838"/>
<path d="M490.048 180.174C489.09 179.542 488.108 178.818 487.204 178.004C485.288 177.94 483.2 177.916 482.682 177.916H433.884C428.821 177.916 423.53 181.77 423.53 186.841V265.621H380.033C373.409 265.621 367.726 270.808 367.604 277.444C367.478 284.201 372.915 289.71 379.637 289.71H467.507C475.729 289.71 482.692 282.957 482.692 274.721L492.143 186.841C492.143 184.904 492.623 183.15 492.749 181.713C491.784 181.267 490.867 180.715 490.048 180.174Z" fill="#3B3838"/>
<path d="M438.01 277.537C437.888 284.348 443.323 289.899 450.048 289.899H472.342C484.639 289.899 494.694 279.748 494.694 267.342V185.039C494.694 184.779 494.684 184.52 494.663 184.267C493.994 176.381 482.557 175.602 480.614 183.269C480.468 183.843 480.393 184.433 480.393 185.039V258.27C480.393 262.329 477.129 265.621 473.107 265.621H450.442C443.819 265.621 438.136 270.851 438.01 277.537Z" fill="#3B3838"/>
<path d="M452.593 214.513C448.191 214.601 443.788 214.702 439.383 214.768C429.546 214.917 419.731 214.705 409.913 214.244C407.018 221.308 387.514 226.948 385.695 235.116C386.904 234.842 404.963 237.035 406.222 237.035C406.379 237.035 406.536 237.035 406.691 237.037C411.502 237.108 415.766 234.398 417.745 230.207C418.935 227.691 420.606 225.534 423.133 224.125C425.628 222.735 428.577 222.358 431.44 222.006L450.214 219.703C451.123 219.592 452.014 219.262 452.653 218.639C453.924 217.402 453.6 215.877 452.593 214.513Z" fill="#3B3838"/>
<path d="M416.76 169.853C413.949 170.988 411.4 172.604 409.095 174.556C406.064 177.713 403.545 181.31 401.768 184.364C401.165 185.4 400.595 186.472 400.31 187.624C399.932 189.139 400.06 190.717 400.134 192.273C400.827 206.832 397.576 218.204 389.78 230.679C389.326 231.406 388.954 232.473 389.465 233.047C389.917 232.872 390.369 232.697 390.817 232.513C395.033 230.795 399.136 228.622 402.541 225.561C405.984 222.464 408.411 218.518 409.597 214.051C410.604 207.386 411.632 200.722 413.198 194.168C414.407 189.101 415.503 183.968 417.518 179.116C418.546 176.65 419.799 174.269 421.383 172.079C422.574 170.428 424.253 169.163 425.275 167.491C422.384 168.071 419.499 168.746 416.76 169.853Z" fill="#92A5F8"/>
<path d="M366.455 314.574L366.384 330.637L366.329 343.131L366.314 346.699H331.531V344.129C331.531 343.789 331.56 343.461 331.615 343.131C331.98 340.82 333.591 338.864 335.854 338.097L352.616 332.421V314.574H366.455Z" fill="#3B3838"/>
<path d="M366.448 314.574H352.609V330.637H366.378L366.448 314.574Z" fill="#FFFFFB"/>
<path d="M331.531 344.129V346.699H366.309L366.327 343.131H331.612C331.557 343.461 331.531 343.792 331.531 344.129Z" fill="#378076"/>
<path d="M426.117 309.671L432.79 324.279L437.976 335.64L439.456 338.885L407.891 353.51L406.815 351.176C406.671 350.869 406.558 350.558 406.466 350.237C405.83 347.985 406.476 345.533 408.206 343.886L421.038 331.687L413.555 315.488L426.117 309.671Z" fill="#3B3838"/>
<path d="M426.11 309.671L413.547 315.488L420.284 330.069L432.781 324.279L426.11 309.671Z" fill="#FFFFFB"/>
<path d="M406.81 351.176L407.886 353.51L439.45 338.885L437.97 335.64L406.461 350.237C406.553 350.558 406.666 350.869 406.81 351.176Z" fill="#378076"/>
<path d="M465.481 236.773C464.532 236.773 425.336 236.979 397.79 237.125C384.583 237.194 375.22 250.044 379.184 262.658L408.76 329.469L431.287 320.419L411.261 266.122L442.793 266.448C452.278 266.547 462.583 259.861 465.762 250.914L467.069 236.252L465.481 236.773Z" fill="#646464"/>
<path d="M438.726 234.375L431.768 234.68L432.979 234.375H401.049C392.101 234.439 382.785 234.505 375.165 234.559C365.426 234.63 357.015 241.392 354.835 250.895L346 326.852L367.965 329.469L383.654 264.007L445.189 264.857C453.588 264.973 460.979 259.339 463.114 251.204L467.52 234.375H438.726Z" fill="#646464"/>
<path d="M433.83 249.851C433.746 249.896 433.661 249.941 433.57 249.986C433.694 249.906 433.821 249.83 433.945 249.757C433.909 249.785 433.87 249.816 433.83 249.851Z" fill="#EC8872"/>
<path d="M442.731 144.246V159.509C442.731 163.327 439.416 166.45 435.602 166.45C431.789 166.45 428.477 163.327 428.477 159.509V144.246C428.477 140.428 431.693 137.305 435.507 137.305C437.412 137.305 439.293 138.084 440.546 139.345C441.805 140.6 442.731 142.337 442.731 144.246Z" fill="#EC8872"/>
<path d="M435.303 148.962L428.477 152.989V146.595C430.26 147.761 431.888 148.73 435.303 148.962Z" fill="#646464"/>
<path d="M426.633 124.975C427.018 123.634 427.632 122.604 428.497 122.299C429.337 122.004 430.255 122.054 431.145 122.109C434.502 122.315 439.023 121.838 442.183 123.177C444.434 124.13 445.357 126.101 445.761 128.786C446.244 131.987 446.393 135.252 446.201 138.492C446.102 140.231 445.801 142.168 444.554 143.186C442.998 144.457 440.713 143.586 439.398 142.005C438.884 141.39 438.462 140.676 438.177 139.894C437.851 138.998 437.715 138.03 437.426 137.12C436.877 135.4 435.665 133.859 434.09 133.47C432.062 132.969 428.608 135.745 427.188 133.954C426.038 132.502 425.771 127.966 426.633 124.975Z" fill="#3B3838"/>
<path d="M433.742 148.775L439.171 147.021C444.318 142.262 439.501 142.32 443.129 142.262L442.734 133.761C442.734 128.89 438.593 124.815 433.73 124.815H433.717C428.854 124.815 424.914 128.89 424.914 133.761V142.225C424.914 143.872 425.97 148.251 433.742 148.775Z" fill="#EC8872"/>
<path d="M439.108 139.891C440.737 140.831 442.813 140.273 443.753 138.644C444.692 137.015 444.136 134.933 442.51 133.992C440.882 133.052 438.802 133.61 437.863 135.239C436.923 136.868 437.48 138.95 439.108 139.891Z" fill="#3B3838"/>
<path d="M445.749 131.935C445.467 130.131 444.122 127.647 442.705 126.52C440.362 124.653 437.547 123.307 434.568 122.973C432.498 122.747 430.347 123.057 428.453 123.908C428.319 125.599 428.068 127.227 428.137 128.846C431.497 129.126 434.305 129.312 435.297 129.171C435.911 134.826 438.477 134.638 441.165 135.483C443.666 136.255 446.248 135.087 445.749 131.935Z" fill="#3B3838"/>
<path d="M432.212 136.099C431.862 136.099 431.578 135.813 431.578 135.463C431.578 135.113 431.862 134.827 432.212 134.827C432.562 134.827 432.845 135.113 432.845 135.463C432.845 135.813 432.562 136.099 432.212 136.099Z" fill="#3B3838"/>
<path d="M429.373 141.288C429.608 141.288 429.836 141.231 430.034 141.113C430.41 140.892 430.614 140.492 430.581 140.042L430.106 140.078C430.124 140.346 430.01 140.573 429.794 140.702C429.554 140.844 429.13 140.887 428.668 140.582L428.406 140.982C428.716 141.185 429.052 141.288 429.373 141.288Z" fill="#3B3838"/>
<path d="M428.297 138.675H429.439V138.197H428.773V134.669H428.297V138.675Z" fill="#3B3838"/>
<path d="M426.385 136.1C426.036 136.1 425.75 135.814 425.75 135.464C425.75 135.114 426.036 134.828 426.385 134.828C426.734 134.828 427.02 135.114 427.02 135.464C427.02 135.814 426.734 136.1 426.385 136.1Z" fill="#3B3838"/>
<path d="M442.169 143.873C443.814 143.873 445.163 142.524 445.163 140.874V139.099C445.163 137.45 443.814 136.099 442.169 136.099C440.517 136.099 439.172 137.45 439.172 139.099V140.874C439.172 142.524 440.517 143.873 442.169 143.873Z" fill="#3B3838"/>
<path d="M439.052 141.047C440.68 141.987 442.759 141.429 443.699 139.801C444.638 138.172 444.079 136.089 442.454 135.148C440.828 134.208 438.746 134.766 437.81 136.395C436.867 138.024 437.426 140.107 439.052 141.047Z" fill="#EC8872"/>
<path d="M430.935 122.251C429.514 121.588 425.981 121.691 424.651 122.516C423.317 123.342 422.443 124.864 422.401 126.433C422.382 127.025 422.482 127.631 422.763 128.151C423.329 129.188 424.545 129.733 425.724 129.803C426.904 129.874 428.062 129.547 429.196 129.222C430.031 128.984 430.887 128.736 431.589 128.225C432.29 127.714 432.823 126.876 432.726 126.012C432.638 125.209 433.833 124.563 433.276 123.978C432.741 123.413 433.987 122.848 433.449 122.283L430.935 122.251Z" fill="#3B3838"/>
<path d="M470.479 159.63C468.171 157.693 465.067 156.399 461.006 155.999C456.754 155.584 452.493 155.239 448.222 154.969C438.654 154.365 429.069 154.133 419.487 154.284C418.366 154.3 417.202 154.277 416.019 154.254C411.373 154.16 406.411 154.068 402.577 156.393C399.69 158.133 397.727 160.779 396.32 163.707C395.103 184.062 393.811 216.744 393.117 235.343L467.082 235.987L473.974 189.875C474.674 186.781 475.306 183.671 475.76 180.553C476.96 172.338 475.95 164.204 470.479 159.63Z" fill="#E3E7E5"/>
<path d="M450.931 154.56L435.117 167.591C433.565 168.872 431.238 168.469 430.205 166.74C427.484 162.186 422.841 154.487 422.438 154.26C431.942 154.193 441.446 154.296 450.931 154.56Z" fill="#FFFFFB"/>
<path d="M348.078 161.105C347.529 160.082 347.586 160.217 348.078 161.105V161.105Z" fill="#A1DCFF"/>
<path d="M419.597 211.358C418.22 210.992 416.46 210.052 415.535 209.377C414.536 208.648 413.142 207.187 412.531 205.918C411.946 204.707 411.686 203.624 411.742 202.6C411.81 201.301 412.433 200.152 413.367 199.602C414.203 199.109 415.304 199.078 416.389 199.517C417.322 199.895 418.179 200.438 419.071 200.914C419.222 200.997 421.112 202.186 420.117 202.521C419.854 202.611 419.573 202.46 419.334 202.314C417.694 201.311 415.875 199.442 413.931 200.501C409.807 202.743 416.061 208.924 418.306 209.925C418.584 210.048 418.867 210.159 419.165 210.182C419.547 210.213 419.928 210.1 420.312 210.111C421.951 210.168 422.515 212.131 419.597 211.358Z" fill="#FFFFFB"/>
<path d="M424.039 216.404H435.7L435.758 216.386C435.899 216.206 436.056 215.998 436.227 215.755C436.671 215.135 437.204 214.306 437.734 213.289L437.756 213.249C437.792 213.174 437.832 213.098 437.872 213.022C437.906 212.952 437.942 212.881 437.976 212.81L438.001 212.763C438.068 212.621 438.138 212.477 438.203 212.331C438.313 212.093 438.42 211.849 438.524 211.604C438.552 211.536 438.58 211.467 438.61 211.399C438.733 211.094 438.852 210.785 438.962 210.474C438.978 210.426 438.996 210.379 439.011 210.33C439.033 210.273 439.051 210.216 439.07 210.16C439.155 209.907 439.238 209.653 439.315 209.398L439.318 209.39C439.345 209.294 439.376 209.195 439.403 209.098L439.407 209.091C439.428 209.001 439.456 208.914 439.477 208.824L439.489 208.779C439.701 208.003 439.875 207.177 440.01 206.304C440.025 206.197 440.041 206.091 440.056 205.985L440.059 205.971C440.071 205.869 440.083 205.768 440.096 205.666C440.108 205.56 440.12 205.454 440.132 205.348C440.145 205.242 440.154 205.133 440.163 205.027C440.172 204.939 440.181 204.855 440.188 204.767C440.191 204.734 440.194 204.699 440.194 204.666C440.203 204.59 440.206 204.512 440.212 204.435L440.215 204.382V204.375C440.273 203.49 440.28 202.565 440.227 201.602C440.224 201.51 440.215 201.418 440.212 201.326C440.175 200.798 440.12 200.26 440.05 199.71H419.797C419.622 202.761 419.791 205.794 420.605 208.697C421.322 211.245 422.229 214.939 424.039 216.404Z" fill="#FFFFFB"/>
<path d="M433.035 168.343C431.922 168.343 430.83 167.782 430.208 166.74C429.459 165.485 428.561 163.991 427.648 162.48C429.802 162.822 431.852 163.685 433.448 165.016C434.254 165.685 434.955 166.474 435.392 167.368L435.122 167.592C434.503 168.1 433.766 168.343 433.035 168.343Z" fill="#FFFFFB"/>
<path d="M321.156 143.849L321.159 143.804C321.171 143.522 321.488 143.419 321.638 143.64C323.471 146.36 325.705 148.726 328.227 150.588C328.36 150.689 328.544 150.643 328.629 150.49C328.717 150.337 328.677 150.131 328.544 150.03C325.913 148.085 323.601 145.583 321.746 142.7C321.673 142.585 321.681 142.426 321.761 142.318C321.822 142.233 321.887 142.15 321.957 142.069C322.067 141.939 322.253 141.949 322.354 142.089C324.093 144.525 326.392 146.79 329.317 148.949C329.45 149.05 329.631 149.007 329.718 148.851C329.806 148.698 329.766 148.492 329.631 148.391C326.766 146.275 324.515 144.063 322.816 141.687C322.715 141.544 322.748 141.328 322.886 141.232C323.044 141.124 323.205 141.026 323.368 140.943C323.471 140.89 323.591 140.923 323.669 141.019C325.506 143.304 327.881 145.825 330.313 147.227C330.456 147.31 330.632 147.245 330.707 147.082C330.778 146.918 330.72 146.717 330.574 146.634C328.413 145.387 326.285 143.213 324.56 141.134C324.389 140.933 324.53 140.589 324.771 140.621C325.667 140.747 326.41 141.924 327.108 142.477C328.172 143.324 329.269 144.148 330.466 144.734C330.512 144.756 330.554 144.779 330.599 144.799C334.581 146.579 350.156 151.026 344.895 158.448C342.289 162.118 334.038 157.973 330.675 155.568C329.899 155.015 329.134 154.404 328.388 153.75C325.87 151.543 323.574 148.811 321.902 145.845C321.663 145.423 321.149 144.405 321.156 143.849Z" fill="#EC8872"/>
<path d="M333.421 141.299C333.575 140.533 334.256 140.998 334.7 141.603C334.959 141.951 335.163 142.357 335.416 142.708C335.794 143.233 336.244 143.686 336.661 144.111C337.722 145.186 338.888 145.893 340.006 146.438C341.147 146.993 341.979 148.071 342.993 149.056C343.88 149.917 346.075 153.404 345.454 154.561C344.904 155.581 341.917 153.371 340.973 152.769C340.038 152.172 339.047 151.181 338.167 150.308C337.183 149.33 336.184 147.782 335.406 146.475C334.909 145.637 334.489 144.743 334.107 143.835C333.811 143.123 333.284 141.959 333.421 141.299Z" fill="#EC8872"/>
<path d="M342.309 153.788L342.336 153.534C339.438 152.659 336.749 149.996 335.648 146.907L335.422 146.963C336.554 150.146 339.324 152.888 342.309 153.788Z" fill="#3B3838"/>
<path d="M453.582 220.154C456.189 215.108 442.665 206.664 440.702 205.819C439.741 205.406 438.743 205.04 437.728 204.731C434.302 203.688 430.642 203.263 427.247 203.676C426.764 203.735 425.638 203.94 425.231 204.36L425.196 204.396C424.994 204.615 425.139 205.028 425.414 205.023C428.736 204.965 432.08 205.593 435.253 206.893C435.424 206.963 435.516 207.188 435.462 207.393C435.408 207.601 435.228 207.709 435.057 207.641C431.748 206.284 428.249 205.675 424.788 205.833C424.649 205.84 424.535 205.963 424.51 206.13C424.491 206.258 424.475 206.388 424.463 206.52C424.444 206.735 424.583 206.924 424.76 206.926C427.807 206.978 431.119 207.749 434.795 209.257C434.966 209.328 435.06 209.55 435.007 209.758C434.953 209.963 434.773 210.074 434.599 210.006C430.999 208.526 427.756 207.768 424.785 207.716C424.605 207.712 424.469 207.908 424.494 208.125C424.526 208.373 424.564 208.616 424.618 208.851C424.649 208.998 424.76 209.102 424.886 209.113C427.892 209.38 431.448 210.041 434.21 211.587C434.375 211.679 434.45 211.915 434.378 212.111C434.308 212.309 434.115 212.394 433.954 212.304C431.495 210.928 428.372 210.272 425.601 209.972C425.332 209.944 425.171 210.343 425.367 210.577C426.094 211.436 427.494 211.358 428.401 211.688C429.785 212.193 431.173 212.75 432.456 213.588C432.503 213.619 432.551 213.649 432.598 213.682C437.82 217.338 445.25 225.893 451.995 221.749C452.766 221.275 453.285 220.736 453.582 220.154Z" fill="#EC8872"/>
<path d="M388.93 192.396C391.401 191.157 393.82 189.821 396.244 188.493L396.054 186.468C397.939 184.839 399.879 183.272 401.782 181.667C405.151 178.827 408.487 175.928 411.545 172.746C411.647 172.641 411.744 172.536 411.846 172.431C411.873 172.403 411.888 172.386 411.899 172.376C411.905 172.369 411.923 172.351 411.958 172.311C412.14 172.116 412.318 171.921 412.5 171.725C412.849 171.337 413.198 170.946 413.535 170.548C414.192 169.785 414.819 169.001 415.414 168.19C415.971 167.432 416.499 166.65 416.977 165.84C417.097 165.631 417.217 165.422 417.332 165.21C417.343 165.189 417.338 165.202 417.329 165.216C417.34 165.202 417.352 165.176 417.373 165.133C417.42 165.043 417.467 164.954 417.51 164.864C417.701 164.485 417.877 164.1 418.038 163.708C418.191 163.332 418.328 162.95 418.449 162.562C418.513 162.36 418.569 162.156 418.622 161.951L418.63 161.921L418.633 161.91C418.651 161.823 418.668 161.737 418.686 161.65C418.756 161.283 418.809 160.911 418.836 160.537C418.85 160.34 418.853 160.143 418.859 159.945L418.862 159.909C418.856 159.831 418.856 159.752 418.847 159.673C418.824 159.313 418.774 158.955 418.701 158.602C418.677 158.493 418.648 158.386 418.625 158.277L418.619 158.259C418.566 158.099 418.513 157.939 418.452 157.78C418.311 157.414 418.135 157.068 417.947 156.723L417.93 156.69L417.909 156.658C417.859 156.582 417.809 156.505 417.757 156.43C417.642 156.262 417.522 156.099 417.396 155.94C417.129 155.603 416.836 155.289 416.534 154.985C416.514 154.963 416.499 154.95 416.493 154.942C416.479 154.93 416.461 154.913 416.429 154.888C416.35 154.817 416.273 154.745 416.188 154.675C416.009 154.52 415.872 154.274 415.64 154.226C402.588 151.504 383.014 170.093 376.933 175.518C374.406 177.771 371.175 180.96 368.041 182.269L349.466 158.846L338.766 164.561L339.34 165.327C338.901 165.909 338.616 166.518 338.484 167.138C340.24 172.094 343.662 180.502 346.18 185.118C348.311 189.014 350.701 192.769 353.336 196.344C361.463 207.366 372.442 204.191 382.782 197.609C383.532 197.132 384.251 196.606 384.954 196.056C385.848 194.447 387.273 193.227 388.93 192.396Z" fill="#E3E7E5"/>
<path d="M464.559 156.702L465.751 157.16C477.366 161.625 484.911 172.335 484.771 184.168L484.33 221.595C484.284 225.612 480.82 228.845 476.562 228.845H450.171L447.898 224.559L452.887 214.513L462.287 215.988L464.559 156.702Z" fill="#E3E7E5"/>
<path d="M464.631 236.36H160.742V229.159H464.631V236.36Z" fill="#FFFFFB"/>
<path d="M165.025 234.613V351.275H160.742V234.613H165.025Z" fill="#FFFFFB"/>
<path d="M464.635 234.613V351.275H460.359V234.613H464.635Z" fill="#FFFFFB"/>
<path d="M277.791 186.996C276.068 193.339 266.677 227.899 266.333 229.058L266.293 229.086H188.094C188.379 227.576 189.178 226.268 190.295 225.341C191.412 224.413 192.842 223.866 194.379 223.866H206.348L214.745 185.056C214.79 184.846 214.974 184.702 215.186 184.709C215.648 184.725 216.532 184.756 217.759 184.799C218.391 184.824 219.117 184.848 219.921 184.876C219.989 184.879 220.06 184.881 220.13 184.883C233.82 185.363 270.422 185.894 277.032 185.986C277.553 185.993 277.93 186.491 277.791 186.996Z" fill="#31A787"/>
<path d="M244.574 205.22C245.472 205.22 246.205 205.954 246.205 206.85C246.205 207.75 245.472 208.483 244.574 208.483C243.678 208.483 242.945 207.75 242.945 206.85C242.945 205.954 243.678 205.22 244.574 205.22Z" fill="#FFFFFB"/>
<path d="M219.921 184.876L209.817 229.086H188.094C188.379 227.576 189.178 226.268 190.295 225.341C191.412 224.413 192.842 223.866 194.379 223.866H206.348L214.745 185.056C214.79 184.846 214.974 184.702 215.186 184.709C215.648 184.725 216.532 184.756 217.759 184.799C218.391 184.824 219.117 184.848 219.921 184.876Z" fill="#3B3838"/>
<path d="M322.334 186.995C324.056 193.339 333.448 227.899 333.792 229.057L333.832 229.086H412.031C411.745 227.575 410.948 226.268 409.829 225.34C408.714 224.413 407.284 223.865 405.746 223.865H393.777L385.379 185.055C385.336 184.845 385.151 184.701 384.94 184.708C384.478 184.724 383.593 184.755 382.365 184.798C381.735 184.824 381.007 184.847 380.204 184.876C380.137 184.878 380.065 184.88 379.996 184.883C366.304 185.362 329.703 185.893 323.094 185.985C322.571 185.992 322.195 186.49 322.334 186.995Z" fill="#31A787"/>
<path d="M355.551 205.22C354.657 205.22 353.922 205.954 353.922 206.851C353.922 207.75 354.657 208.484 355.551 208.484C356.45 208.484 357.182 207.75 357.182 206.851C357.182 205.954 356.45 205.22 355.551 205.22Z" fill="#FFFFFB"/>
<path d="M380.203 184.876L390.306 229.086H412.031C411.745 227.575 410.947 226.268 409.829 225.34C408.713 224.413 407.283 223.865 405.746 223.865H393.776L385.379 185.055C385.335 184.845 385.15 184.701 384.939 184.708C384.477 184.724 383.593 184.755 382.365 184.798C381.735 184.824 381.006 184.847 380.203 184.876Z" fill="#3B3838"/>
<path d="M67.1859 124.043L72.8383 124.099C73.9669 124.111 74.887 123.063 74.887 121.77V93.3957C74.887 92.1166 73.9884 91.0758 72.8732 91.0664L67.221 91.0098C66.0924 90.998 65.1719 92.0458 65.1719 93.3415V121.713C65.1719 122.992 66.0709 124.033 67.1859 124.043Z" fill="#EDAB00"/>
<path d="M76.401 124.052L80.3548 124.099C81.1445 124.109 81.7881 123.24 81.7881 122.164V98.6184C81.7881 97.5564 81.1594 96.6927 80.3795 96.6832L76.4255 96.6384C75.6358 96.6289 74.9922 97.4974 74.9922 98.5712V122.119C74.9922 123.181 75.6212 124.045 76.401 124.052Z" fill="#F16F67"/>
<path d="M92.7614 124.029L96.4503 122.601C97.1867 122.318 97.4627 121.27 97.0644 120.274L88.3386 98.406C87.9451 97.4219 87.0413 96.8531 86.3136 97.1339L82.6247 98.5594C81.8882 98.8449 81.6122 99.8904 82.0105 100.889L90.7363 122.754C91.1299 123.741 92.0336 124.309 92.7614 124.029Z" fill="#4CB050"/>
<path d="M130.319 130.665H56.8242C56.4898 130.665 56.2188 130.379 56.2188 130.025V125.404C56.2188 125.05 56.4898 124.765 56.8242 124.765H130.319C130.653 124.765 130.925 125.05 130.925 125.404V130.025C130.925 130.379 130.653 130.665 130.319 130.665Z" fill="#FFFFFB"/>
<path d="M99.2843 98.3375C99.1901 97.8113 98.998 97.3039 98.6603 96.8932C98.1875 96.3198 97.387 95.9775 96.6755 96.1947C96.0078 94.6843 93.8911 94.2925 92.4054 95.0076C90.9196 95.725 89.9649 97.2071 89.2282 98.6821C88.2141 100.716 87.1482 104.006 87.9391 106.267C89.2558 110.034 92.0244 108.009 94.2792 106.635C97.025 104.964 99.4955 102.191 99.3534 98.9771C99.3439 98.7647 99.3223 98.5499 99.2843 98.3375Z" fill="#31A787"/>
<path d="M136.691 66.1259C134.788 63.5653 131.615 63.9925 128.879 64.1223C127.562 64.1836 126.294 64.4243 125.215 65.2031C125.19 65.222 125.162 65.2409 125.136 65.2598C124.749 65.4014 124.378 65.6043 124.032 65.8923C123.03 66.7277 121.763 67.7897 121.405 69.0948C120.612 71.9881 122.836 74.2797 125.431 74.9971C128.823 75.9317 131.422 74.1593 134.094 72.3351C135.855 71.1315 138.345 68.3537 136.691 66.1259Z" fill="#31A787"/>
<path d="M123.864 79.9673C122.369 78.6575 119.955 79.9838 118.622 80.7886C118.464 80.8854 118.314 80.9892 118.168 81.0977C117.916 81.1638 117.662 81.2417 117.409 81.3314C116.491 81.2134 115.768 80.7202 114.763 80.7744C113.657 80.8358 112.675 81.3196 111.839 82.0417C110.569 83.1391 109.433 84.8903 110.205 86.5871C110.843 87.9913 112.441 88.638 113.83 89.0132C114.561 89.2114 115.306 89.3507 116.058 89.438C116.849 89.5277 117.874 89.877 118.645 89.7377C119.579 89.5725 119.992 88.6616 120.474 87.963C121.4 86.6249 122.781 85.6313 123.701 84.2743C124.425 83.21 125.01 80.9703 123.864 79.9673Z" fill="#31A787"/>
<path d="M144.578 89.2303C144.067 88.4515 143.555 87.9654 142.692 87.5901C141.799 87.1984 140.17 86.521 139.205 86.8679C138.779 87.019 138.485 87.3093 138.284 87.6727C136.322 88.3784 134.328 89.235 134.145 91.5927C133.977 93.7709 135.518 95.1539 137.149 96.282C138.251 97.0443 139.16 98.019 140.42 98.5476C141.724 99.0951 143.108 98.9346 144.489 98.9724C146.449 99.0243 147.783 98.5995 147.77 96.3858C147.753 93.6931 145.997 91.3921 144.578 89.2303Z" fill="#31A787"/>
<path d="M136.705 101.153C135.504 99.907 134.259 98.019 132.315 98.0591C131.402 98.0756 130.831 98.7104 130.6 99.4987C129.468 99.2745 128.325 99.291 128.188 100.754C128.038 102.352 128.95 103.659 130.217 104.528C131.866 105.658 133.878 106.147 135.84 106.347C137.024 106.468 138.828 107.176 139.024 105.389C139.194 103.839 137.688 102.175 136.705 101.153Z" fill="#31A787"/>
<path d="M107.619 96.7799C107.839 96.0129 107.573 95.2176 106.858 94.7975C105.598 93.6812 103.469 94.6795 102.642 95.8902C102.199 96.5392 101.817 97.318 101.542 98.1393C101.104 99.0361 100.814 99.9612 100.709 100.608C100.561 101.516 100.981 102.493 101.982 102.614C102.075 102.626 102.168 102.628 102.261 102.626C102.789 102.68 103.287 102.538 103.755 102.267C103.974 102.198 104.189 102.097 104.396 101.972C105.48 101.5 106.332 100.049 106.795 99.0526C106.869 98.8921 106.949 98.7057 107.023 98.5051C107.35 97.9316 107.568 97.344 107.619 96.7799Z" fill="#31A787"/>
<path d="M114 90.1058C113.888 89.9831 113.766 89.8722 113.635 89.7731C112.794 88.789 110.587 88.3595 108.658 88.1966C108.471 88.1659 108.283 88.14 108.095 88.1164C108.043 88.1046 107.992 88.0999 107.941 88.1022C107.412 88.0503 106.882 88.0456 106.364 88.114C105.976 88.1187 105.672 88.1353 105.499 88.1565C105.196 88.1919 104.992 88.4775 104.943 88.7583C104.731 89.9902 105.455 91.0097 106.533 91.7366C107.05 92.2393 107.63 92.6877 108.156 93.0842C108.836 93.5963 109.524 93.7261 110.178 93.4169C110.423 93.4736 110.674 93.5161 110.931 93.542C111.962 93.6435 113.323 92.624 113.778 91.6139C114.439 91.418 114.401 90.5472 114 90.1058Z" fill="#31A787"/>
<path d="M135.298 84.4513C135.156 84.3121 135.002 84.1846 134.839 84.0714C133.723 83.2926 132.17 83.2005 130.969 83.8377C130.018 83.1722 129.006 82.4831 127.848 82.3934C126.691 82.3037 125.383 83.0778 125.333 84.2389C125.228 86.6272 126.9 91.4888 130.046 89.6905C131.748 88.7158 134.075 90.1035 135.583 88.6734C136.872 87.4509 136.471 85.5865 135.298 84.4513Z" fill="#31A787"/>
<path d="M95.8583 84.154C95.8552 84.1138 95.8567 84.0737 95.8557 84.0336C95.9231 84.4018 96.0238 84.7416 96.1616 85.0437C96.1637 85.1098 96.1687 85.1758 96.1767 85.2396C95.9967 84.8572 95.8847 84.4702 95.8583 84.154ZM101.85 76.8993C101.407 76.6445 100.919 76.4486 100.449 76.3495C100.371 76.2857 100.282 76.2291 100.18 76.1913C98.0873 75.4031 96.8262 76.0592 96.2898 77.8032C96.0386 78.6174 95.9792 79.4576 95.5406 80.2317C95.2385 80.765 94.7354 81.2134 94.4379 81.7515C93.9911 82.5586 93.9211 83.5687 94.072 84.4443C94.3392 85.9948 95.8376 88.2533 97.8356 88.6238C99.6132 88.9566 101.14 87.6586 102.087 86.5706C104.435 83.8708 105.677 79.0989 101.85 76.8993Z" fill="#31A787"/>
<path d="M118.402 103.744C118.397 103.777 118.404 103.806 118.414 103.836C118.291 103.69 118.168 103.546 118.051 103.397C118.115 103.272 118.178 103.147 118.242 103.022C118.415 102.687 118.605 102.446 118.82 102.229C118.644 102.722 118.485 103.22 118.402 103.744ZM137.535 91.4251C137.116 91.3685 136.88 91.4818 136.51 91.6399C135.952 91.883 135.362 92.0623 134.799 92.2983C133.55 92.8175 132.352 93.4878 131.044 93.8512C128.471 94.5663 126.121 95.8785 123.867 97.2968C122.792 97.9741 121.674 98.6916 120.807 99.6285C120.409 100.06 120.044 100.523 119.655 100.955C119.666 100.922 119.678 100.889 119.689 100.856C119.947 100.051 120.001 99.2155 120.359 98.4391C121.152 96.7186 121.841 94.9722 122.665 93.2612C123.471 91.588 124.605 90.1366 125.548 88.5436C126.059 87.6822 126.536 86.8916 127.249 86.1741C127.428 85.9948 128.517 84.7534 128.73 85.2821C128.74 85.3057 128.785 85.3316 128.79 85.2915C128.904 84.3027 127.652 85.367 127.408 85.5889C126.634 86.2945 126.026 87.0379 125.511 87.9465C124.906 89.0132 124.178 89.9973 123.513 91.0239C122.253 92.9733 121.423 95.102 120.536 97.2331C120.325 97.7405 120.029 98.2148 119.85 98.7317C119.692 99.1895 119.631 99.671 119.521 100.141C119.415 100.591 119.263 101.028 119.104 101.46C118.812 101.677 118.518 101.866 118.281 102.21C118.115 102.451 117.979 102.713 117.845 102.975L117.812 102.973C117.789 102.895 117.765 102.817 117.74 102.739C117.699 102.151 117.764 101.535 117.764 100.96C117.763 100.164 117.762 99.3689 117.761 98.5759C117.761 97.934 117.67 97.2496 117.799 96.6195C117.931 95.9823 117.995 95.5362 118.008 94.8849C118.039 93.3462 118.621 91.7815 119.096 90.3395C119.551 88.9613 119.946 87.5854 120.567 86.2662C121.171 84.9823 121.653 83.6395 122.323 82.3887C122.967 81.1898 123.69 80.024 124.407 78.8652C124.792 78.2422 125.179 77.6191 125.514 76.9678C125.803 76.4037 125.982 75.7783 126.358 75.2662C126.751 74.7305 127.225 74.1216 127.151 73.4065C127.144 73.3405 127.041 73.3121 127.047 73.3924C127.085 73.9588 126.657 74.5063 126.325 74.9193C125.981 75.3441 125.808 75.7547 125.575 76.2551C125.004 77.4846 124.23 78.6033 123.531 79.7597C122.044 82.2211 120.706 84.836 119.685 87.5311C119.171 88.8881 118.751 90.3136 118.333 91.7036C117.955 92.9615 117.794 94.1415 117.716 95.4371C117.682 95.9941 117.459 96.5015 117.436 97.0632C117.406 97.7759 117.457 98.5075 117.456 99.2226C117.455 99.8362 117.461 100.45 117.457 101.063C117.441 100.804 117.422 100.544 117.376 100.289C117.148 99.0267 116.727 97.7995 116.594 96.5227C116.318 93.8725 116.755 91.2505 116.697 88.6097C116.696 88.5625 116.625 88.5436 116.623 88.6002C116.605 89.3696 116.636 90.1814 116.484 90.9366C116.382 91.444 116.299 91.9136 116.28 92.4305C116.23 93.8064 116.191 95.2743 116.352 96.6431C116.486 97.7712 116.832 98.8615 117.054 99.9754C117.195 100.681 117.156 101.391 117.289 102.09C117.296 102.125 117.307 102.161 117.315 102.196C116.958 101.502 116.642 100.775 116.204 100.143C115.847 99.6261 115.369 99.2485 115.036 98.6916C114.637 98.0308 114.274 97.344 113.917 96.6596C113.181 95.246 112.488 93.8087 111.783 92.3809C111.23 91.2576 110.737 90.0752 109.923 89.11C109.075 88.1046 108.368 87.0025 107.509 86.0066C107.186 85.6337 106.877 85.3481 106.456 85.0885C105.935 84.7676 105.638 84.3664 105.193 83.977C104.125 83.0424 102.868 82.2967 101.722 81.4589C101.697 81.44 101.685 81.4801 101.705 81.4943C102.793 82.3557 103.967 83.1226 105.03 84.0124C105.378 84.3026 105.613 84.6968 105.969 84.9776C106.524 85.4142 107.029 85.6667 107.503 86.2308C108.29 87.1653 108.927 88.1967 109.725 89.1289C110.631 90.1861 111.155 91.4983 111.765 92.7349C112.426 94.0731 113.067 95.423 113.752 96.7493C114.32 97.849 114.856 99.0125 115.712 99.9093C116.459 100.693 116.951 101.868 117.433 102.833L117.443 102.85C117.455 103.013 117.476 103.178 117.514 103.343C117.523 103.381 117.553 103.426 117.591 103.456C117.563 103.508 117.535 103.56 117.505 103.612C117.37 103.839 117.171 104.065 117.117 104.33C117.035 104.731 117.205 105.028 117.646 104.884C117.775 104.844 117.72 104.648 117.6 104.634C117.194 104.582 117.7 104.006 117.828 103.799C117.868 103.733 117.902 103.666 117.938 103.6C118.442 104.249 119.024 104.828 119.207 105.689C119.218 105.746 119.271 105.788 119.325 105.798C119.388 105.812 119.452 105.826 119.516 105.84C119.672 105.873 119.632 105.609 119.498 105.58C119.365 105.552 119.032 104.639 118.949 104.514C118.878 104.407 118.801 104.304 118.723 104.205C120.219 102.928 122.484 102.326 124.346 101.894C126.312 101.441 128.245 101.365 130.157 102.059C130.367 102.135 130.349 101.837 130.208 101.757C128.467 100.792 126.093 101.127 124.252 101.578C123.14 101.849 122.044 102.227 120.989 102.671C120.16 103.017 119.248 103.419 118.65 104.117C118.607 104.063 118.562 104.011 118.518 103.959C118.596 104.004 118.69 103.997 118.714 103.874C118.863 103.119 119.126 102.427 119.384 101.727C119.445 101.675 119.506 101.623 119.57 101.568C119.886 101.295 120.099 100.948 120.383 100.641C122.015 98.8827 123.952 97.6178 126.039 96.4496C127.014 95.9044 127.997 95.3356 129.02 94.8849C129.949 94.4766 130.933 94.2807 131.879 93.9291C132.839 93.5751 133.721 93.0464 134.664 92.65C135.169 92.4376 135.662 92.211 136.169 92.0057C136.648 91.8145 137.012 91.5172 137.546 91.4865C137.58 91.4841 137.561 91.4275 137.535 91.4251Z" fill="#31A787"/>
<path d="M123.724 91.0381C123.705 91.0664 123.686 91.0971 123.668 91.1254C123.58 91.2623 123.494 91.3992 123.41 91.5361C123.514 91.3685 123.619 91.2033 123.724 91.0381ZM127.253 95.5599C126.071 96.1593 124.968 96.8225 123.964 97.4549C123.008 98.0567 121.819 98.8072 120.941 99.7559C120.817 99.8905 120.696 100.03 120.576 100.169C122.27 98.4509 124.231 97.2473 125.946 96.2867L126.279 96.1003C126.6 95.9209 126.924 95.7392 127.253 95.5599ZM119.248 101.583L119.241 101.601L119.252 101.578L119.248 101.583ZM127.167 101.358C128.037 101.358 128.855 101.472 129.646 101.698C128.731 101.33 127.588 101.233 126.19 101.403C126.523 101.373 126.849 101.358 127.167 101.358ZM117.362 101.07C117.385 101.41 117.409 101.734 117.47 102.055L117.538 102.352C117.537 102.106 117.547 101.861 117.557 101.62C117.565 101.434 117.573 101.247 117.575 101.066L117.362 101.07ZM117.764 103.357L117.769 103.362L117.763 103.355L117.764 103.357ZM117.752 103.303L117.855 103.362L118.075 102.937C118.241 102.616 118.429 102.357 118.686 102.099L119.066 101.715C118.833 101.887 118.613 102.055 118.432 102.317C118.276 102.543 118.148 102.786 118.009 103.06L117.95 103.178L117.82 103.161L117.723 103.176L117.752 103.303ZM118.27 103.374L118.279 103.386L118.29 103.336L118.27 103.374ZM117.787 103.461L117.791 103.478L117.822 103.423L117.81 103.409L117.787 103.461ZM117.773 103.497L117.722 103.603C117.703 103.638 117.684 103.674 117.663 103.707L117.662 103.709L117.667 103.699C117.693 103.659 117.717 103.615 117.74 103.57L117.776 103.506L117.773 103.497ZM119.54 106.029C119.519 106.029 119.497 106.026 119.475 106.022L119.285 105.982C119.154 105.953 119.049 105.852 119.022 105.727C118.882 105.064 118.486 104.575 118.066 104.061C118.031 104.016 117.996 103.973 117.962 103.931C117.939 103.964 117.911 104.004 117.881 104.046C117.82 104.131 117.67 104.344 117.636 104.45C117.786 104.485 117.889 104.606 117.902 104.75C117.916 104.894 117.835 105.019 117.702 105.061C117.384 105.165 117.194 105.075 117.091 104.981C116.93 104.839 116.873 104.587 116.933 104.292C116.98 104.063 117.112 103.865 117.23 103.692C117.27 103.633 117.309 103.574 117.344 103.515L117.367 103.475C117.35 103.447 117.338 103.416 117.331 103.386C117.297 103.239 117.274 103.084 117.259 102.902C117.172 102.73 117.095 102.569 117.015 102.406C116.602 101.55 116.175 100.667 115.576 100.039C114.808 99.2344 114.295 98.2266 113.798 97.252L113.585 96.8343C113.111 95.9186 112.651 94.9769 112.207 94.0636C112.004 93.6482 111.801 93.2329 111.596 92.8175C111.476 92.5745 111.36 92.329 111.243 92.0812C110.776 91.0971 110.294 90.0799 109.581 89.2492C109.165 88.7631 108.788 88.2439 108.423 87.7435C108.085 87.2786 107.736 86.7972 107.359 86.3488C107.047 85.9782 106.714 85.7446 106.362 85.4968C106.196 85.3812 106.027 85.2608 105.853 85.1239C105.653 84.9682 105.492 84.7794 105.336 84.6C105.196 84.4372 105.064 84.2861 104.909 84.1563C104.315 83.6584 103.673 83.1911 103.052 82.738C102.567 82.384 102.066 82.0205 101.588 81.6406L101.445 81.5273L101.549 81.3479C101.615 81.2583 101.738 81.2417 101.829 81.3078C102.225 81.5957 102.641 81.8789 103.043 82.1527C103.812 82.6766 104.607 83.217 105.313 83.8354C105.47 83.9722 105.609 84.1115 105.745 84.2484C105.994 84.4962 106.229 84.7298 106.552 84.9304C106.956 85.1782 107.284 85.4638 107.648 85.8839C108.101 86.4101 108.517 86.9695 108.919 87.5123C109.285 88.0055 109.662 88.5129 110.063 88.9896C110.751 89.8062 111.215 90.7738 111.664 91.7107C111.758 91.9066 111.852 92.1025 111.948 92.2983L112.403 93.2235C112.944 94.3256 113.504 95.4654 114.08 96.5723C114.478 97.3369 114.82 97.9741 115.193 98.5972C115.369 98.8874 115.584 99.1282 115.813 99.3807C115.998 99.5836 116.189 99.796 116.355 100.037C116.596 100.384 116.801 100.761 116.993 101.141C116.992 101.118 116.99 101.094 116.989 101.073C116.964 100.721 116.939 100.36 116.87 100.011C116.789 99.6049 116.689 99.1919 116.592 98.7954C116.425 98.1039 116.251 97.3889 116.166 96.6643C116.005 95.3026 116.039 93.8819 116.092 92.4234C116.111 91.9207 116.185 91.4676 116.299 90.9012C116.415 90.3254 116.422 89.7023 116.428 89.1005C116.43 88.9306 116.431 88.763 116.436 88.5955C116.439 88.4728 116.532 88.3784 116.652 88.3784H116.652C116.775 88.3784 116.878 88.4799 116.881 88.6049C116.905 89.6953 116.844 90.7974 116.786 91.8617C116.703 93.3816 116.616 94.9533 116.777 96.5039C116.855 97.2543 117.04 98.0072 117.218 98.7364C117.234 98.8001 117.25 98.8662 117.266 98.9323C117.263 98.7506 117.258 98.5689 117.253 98.3871C117.242 97.9505 117.23 97.4974 117.248 97.0537C117.26 96.7493 117.328 96.4614 117.394 96.1853C117.455 95.9257 117.512 95.6826 117.528 95.4277C117.616 93.9598 117.809 92.7939 118.153 91.6493L118.232 91.3874C118.622 90.087 119.026 88.7418 119.51 87.4651C120.459 84.9564 121.758 82.332 123.37 79.6629C123.557 79.3537 123.75 79.0469 123.942 78.7401C124.458 77.9165 124.991 77.0669 125.405 76.1772L125.473 76.0285C125.678 75.5848 125.855 75.2025 126.178 74.8013C126.463 74.4496 126.894 73.9163 126.859 73.4065C126.85 73.2744 126.938 73.1682 127.062 73.1587C127.195 73.1446 127.32 73.2508 127.334 73.3877C127.412 74.1429 126.958 74.7612 126.558 75.304L126.506 75.3771C126.277 75.6887 126.126 76.0427 125.965 76.4203C125.874 76.6327 125.783 76.8474 125.677 77.0527C125.348 77.6947 124.964 78.3153 124.593 78.9148L124.479 79.1012C123.801 80.1962 123.101 81.329 122.485 82.4784C122.082 83.2288 121.741 84.0312 121.411 84.8077C121.195 85.3127 120.972 85.8367 120.733 86.3441C120.236 87.4013 119.892 88.4728 119.527 89.6079C119.443 89.8699 119.358 90.1342 119.271 90.3985L119.112 90.8753C118.673 92.1898 118.219 93.5468 118.192 94.8873C118.179 95.5764 118.107 96.0413 117.98 96.6573C117.892 97.0821 117.911 97.5517 117.93 98.0048C117.938 98.196 117.945 98.3871 117.946 98.5759L117.948 100.96C117.948 101.181 117.939 101.408 117.929 101.637C117.918 101.906 117.907 102.18 117.911 102.449C117.979 102.331 118.048 102.215 118.126 102.104C118.352 101.776 118.622 101.578 118.884 101.387L118.947 101.342C119.113 100.889 119.244 100.499 119.338 100.098C119.375 99.94 119.406 99.7819 119.437 99.6261C119.499 99.3123 119.563 98.9866 119.672 98.6727C119.78 98.3612 119.928 98.0638 120.071 97.7783C120.173 97.5753 120.275 97.37 120.362 97.1623L120.627 96.5227C121.406 94.6395 122.211 92.6925 123.355 90.9225C123.584 90.5708 123.819 90.2215 124.055 89.8746C124.497 89.2232 124.953 88.5483 125.347 87.8545C125.859 86.9506 126.473 86.1883 127.28 85.452C127.592 85.1664 128.361 84.5245 128.764 84.7345C128.937 84.8219 129.007 85.0177 128.972 85.3127L128.956 85.4567L128.796 85.4968C128.695 85.5086 128.594 85.4473 128.556 85.3529C128.503 85.3269 128.276 85.3576 127.466 86.2166L127.379 86.3063C126.66 87.0284 126.175 87.8474 125.706 88.6403C125.351 89.2398 124.963 89.8274 124.588 90.3962C123.969 91.3354 123.329 92.3078 122.83 93.3438C122.365 94.309 121.934 95.305 121.518 96.2702C121.2 97.0089 120.87 97.7712 120.526 98.5169C120.32 98.9653 120.219 99.4279 120.113 99.9211C120.092 100.016 120.071 100.115 120.05 100.211C120.252 99.973 120.456 99.7323 120.668 99.5034C121.579 98.5169 122.792 97.7547 123.766 97.1411C125.818 95.8478 128.281 94.4247 130.992 93.6719C131.86 93.4311 132.699 93.0441 133.511 92.6689C133.907 92.4848 134.316 92.296 134.725 92.1261C134.992 92.0151 135.263 91.916 135.535 91.8169C135.834 91.7083 136.143 91.595 136.434 91.47L136.477 91.4511C136.827 91.3 137.103 91.1797 137.558 91.2387L137.559 91.2411C137.67 91.2552 137.753 91.359 137.749 91.4747L137.742 91.6423L137.556 91.6706C137.229 91.6918 136.962 91.8263 136.679 91.9703C136.537 92.0434 136.393 92.1166 136.237 92.1803C135.93 92.3031 135.628 92.4352 135.326 92.5674C135.129 92.6523 134.933 92.7373 134.734 92.8199C134.331 92.9898 133.931 93.1904 133.543 93.3816C133.028 93.6364 132.496 93.9008 131.942 94.1037C131.541 94.2524 131.129 94.3751 130.732 94.4931C130.187 94.656 129.624 94.8235 129.094 95.0572C128.195 95.4513 127.313 95.9469 126.461 96.426L126.128 96.6124C124.324 97.6201 122.247 98.904 120.517 100.768C120.409 100.884 120.313 101.007 120.216 101.127C120.059 101.325 119.895 101.531 119.689 101.71L119.54 101.837L119.504 101.937C119.304 102.479 119.113 102.996 118.976 103.544C119.586 103.055 120.334 102.741 120.915 102.498C122.032 102.029 123.14 101.658 124.206 101.396C126.882 100.74 128.874 100.806 130.296 101.594C130.464 101.689 130.547 101.927 130.47 102.095C130.416 102.213 130.279 102.302 130.092 102.234C128.396 101.618 126.582 101.568 124.387 102.078C122.398 102.536 120.372 103.117 118.977 104.233C119.02 104.292 119.062 104.351 119.101 104.41C119.137 104.464 119.182 104.568 119.266 104.761C119.345 104.946 119.504 105.314 119.579 105.41C119.673 105.446 119.747 105.528 119.782 105.635C119.82 105.753 119.801 105.868 119.731 105.946C119.682 106 119.615 106.029 119.54 106.029Z" fill="#31A787"/>
<path d="M114.752 104.351C114.476 104.304 114.242 104.148 114.026 103.957C114.2 103.971 114.378 103.964 114.562 103.928C114.688 103.902 114.627 103.695 114.518 103.69C114.171 103.671 113.859 103.605 113.572 103.504C113.433 103.355 113.294 103.213 113.149 103.1C112.754 102.791 112.285 102.545 111.815 102.326C111.418 101.955 111.027 101.554 110.586 101.188C109.992 100.695 109.332 100.438 108.617 100.159C108.094 99.9565 107.644 99.6757 107.167 99.3831C106.968 99.2627 106.76 99.1541 106.562 99.0314C106.501 98.9937 106.079 98.6963 105.993 98.7577C105.994 98.6184 106.007 98.6467 105.874 98.5453C105.796 98.4839 105.737 98.6043 105.797 98.6633C107.28 100.122 109.458 100.403 110.941 101.826C111.006 101.887 111.073 101.953 111.14 102.019C109.428 101.266 107.623 100.573 105.829 100.044C105.191 99.8574 104.583 99.6143 103.912 99.6049C103.464 99.6002 103.068 99.6167 102.63 99.5129C102.32 99.4397 102.029 99.3736 101.71 99.3736C100.949 99.376 100.279 99.1541 99.5395 99.1565C99.1632 99.1589 98.9315 99.0763 98.5978 98.9819C98.2233 98.8757 97.7987 98.9417 97.4192 98.9701C97.3261 98.9771 97.3712 99.1447 97.4508 99.1447C97.9054 99.1494 98.3096 99.1282 98.7418 99.2839C98.9824 99.3713 99.1 99.4326 99.3555 99.4586C99.7976 99.5011 100.181 99.5081 100.612 99.6379C100.868 99.7158 101.107 99.7064 101.371 99.704C102.139 99.6969 102.838 99.9589 103.599 99.9542C104.623 99.9471 105.579 100.277 106.549 100.596C108.231 101.151 109.971 101.814 111.566 102.583C111.673 102.635 111.768 102.689 111.868 102.744C112.339 103.19 112.857 103.61 113.43 103.822C113.516 103.898 113.602 103.969 113.689 104.049C114.003 104.344 114.329 104.655 114.775 104.693C114.992 104.712 114.926 104.382 114.752 104.351Z" fill="#31A787"/>
<path d="M100.683 99.4657C100.805 99.4987 100.924 99.5128 101.05 99.5176C100.925 99.501 100.803 99.4822 100.683 99.4657ZM112.018 102.63C112.389 102.98 112.877 103.4 113.425 103.622C113.299 103.487 113.166 103.35 113.033 103.246C112.718 102.999 112.349 102.793 112.018 102.63ZM113.616 103.737L113.718 103.744C113.67 103.733 113.622 103.718 113.575 103.702L113.616 103.737ZM114.79 104.879L114.758 104.877C114.253 104.835 113.891 104.497 113.572 104.197C113.502 104.131 113.443 104.079 113.385 104.03L113.332 103.985C112.705 103.744 112.163 103.279 111.756 102.895L111.679 102.855C111.616 102.819 111.552 102.784 111.483 102.751C110.039 102.055 108.359 101.389 106.489 100.773L106.369 100.733C105.433 100.426 104.552 100.143 103.599 100.141C103.201 100.138 102.824 100.077 102.457 100.013C102.087 99.9471 101.742 99.8928 101.371 99.8905H101.306C101.057 99.8928 100.819 99.8952 100.557 99.8149C100.24 99.7205 99.9419 99.6946 99.6256 99.6686C99.5309 99.6615 99.4343 99.6521 99.3351 99.6427C99.1034 99.6191 98.9691 99.5695 98.7987 99.5058L98.6768 99.4586C98.3292 99.3335 97.9993 99.3335 97.6173 99.3311H97.4476C97.2883 99.3288 97.1844 99.1801 97.1799 99.0432C97.1747 98.904 97.2687 98.7954 97.4031 98.786L97.5911 98.7695C97.9236 98.7388 98.3005 98.7034 98.6467 98.8025L98.7709 98.8379C99.0405 98.9158 99.2356 98.9653 99.5368 98.9701C99.9226 98.9583 100.285 99.0267 100.638 99.081C100.98 99.1329 101.333 99.1872 101.697 99.1872H101.716C102.061 99.1872 102.371 99.2603 102.671 99.3311C103.018 99.4137 103.332 99.4161 103.697 99.4185H103.913C104.476 99.4279 104.997 99.5907 105.5 99.7489C105.626 99.789 105.753 99.8291 105.88 99.8669C107.178 100.247 108.571 100.745 110.036 101.349C109.507 101 108.926 100.726 108.323 100.443C107.497 100.056 106.646 99.6544 105.923 99.0338L105.801 99.1211L105.803 98.9276C105.756 98.8851 105.71 98.8426 105.665 98.7978C105.564 98.6986 105.558 98.5311 105.65 98.4249C105.736 98.3258 105.878 98.314 105.986 98.3966L106.026 98.4273C106.102 98.4839 106.144 98.5264 106.164 98.5901C106.283 98.6349 106.432 98.7222 106.624 98.8497L106.659 98.8733C106.759 98.9346 106.862 98.9937 106.966 99.0527C107.065 99.1093 107.165 99.1659 107.263 99.2249L107.319 99.258C107.77 99.5364 108.196 99.7961 108.683 99.9849C109.403 100.266 110.082 100.528 110.703 101.044C111.018 101.306 111.306 101.583 111.586 101.852C111.698 101.958 111.808 102.064 111.919 102.168C112.323 102.357 112.833 102.616 113.262 102.954C113.407 103.067 113.545 103.206 113.674 103.341C113.95 103.435 114.229 103.487 114.527 103.504C114.696 103.513 114.807 103.669 114.816 103.815C114.826 103.961 114.735 104.084 114.595 104.11L114.59 104.112C114.653 104.138 114.717 104.157 114.782 104.167C114.994 104.205 115.117 104.431 115.094 104.613C115.073 104.773 114.95 104.879 114.79 104.879Z" fill="#31A787"/>
<path d="M127.674 108.134C127.599 106.923 127.651 105.347 126.699 104.643H107.237C107.212 104.721 107.195 104.809 107.191 104.91C107.085 107.775 107.146 110.614 107.372 113.456C107.483 114.848 107.648 116.132 107.604 117.543C107.565 118.745 107.726 119.87 108.161 120.998C108.899 122.912 109.952 124.628 112.107 124.838C114.829 125.102 117.615 125.282 120.354 125.046C122.637 124.85 124.335 125.312 125.888 123.429C127.655 121.286 127.763 119.91 127.684 117.215C127.595 114.197 127.861 111.145 127.674 108.134Z" fill="#4CB050"/>
<path d="M122.725 68.9768C123.916 66.8811 126.704 65.9111 128.911 65.4509C131.009 65.012 133.747 65.3094 135.728 66.1684C136.038 66.3029 136.532 66.4351 136.732 66.7301C137.018 67.1525 136.891 66.7136 136.698 67.2375C136.332 68.2287 135.485 69.4394 134.852 70.2512C134.814 70.3008 134.776 70.3479 134.738 70.3951C132.992 70.7964 131.971 72.7292 130.798 73.9446C130.691 74.0555 130.585 74.157 130.479 74.2537C130.093 74.4307 129.686 74.5771 129.251 74.6833C126.858 75.2615 122.788 73.8714 122.432 71.0229C122.406 70.8129 122.3 70.6335 122.159 70.499C122.235 70.0199 122.421 69.5125 122.725 68.9768ZM128.542 77.0999C129.782 77.1259 130.826 76.6444 131.708 75.7783C131.742 75.7429 131.777 75.7051 131.811 75.6697C133.381 74.8768 134.857 73.4065 135.971 71.9079C136.067 71.8395 136.131 71.7474 136.166 71.6412C136.428 71.2754 136.668 70.912 136.88 70.5556C137.752 69.0995 139.253 67.1313 137.8 65.5831C136.502 64.1978 134.407 63.9052 132.655 63.6644C129.993 63.2963 127.541 63.5134 125.029 64.6226C121.358 66.2392 118.555 70.9497 121.907 74.3245C123.466 75.8963 126.35 77.0551 128.542 77.0999Z" fill="#31A787"/>
<path d="M123.21 81.6925C123.118 82.1834 123.003 82.6672 122.864 83.1486C122.532 84.0478 121.766 85.2986 121.173 86.075C120.766 86.6084 120.25 87.0285 119.881 87.5972C119.664 87.9347 119.555 88.3996 119.305 88.6993C118.101 90.1437 115.773 88.9235 114.366 88.3005C113.585 87.9559 111.917 87.5477 111.435 86.8538C110.37 85.3222 111.757 82.62 113.129 81.7893C113.892 81.3243 114.855 81.1969 115.832 81.1662C115.601 81.5297 115.423 81.9285 115.324 82.3675C115.216 82.8442 115.565 83.4129 116.025 83.5829C116.288 83.9982 116.791 84.2602 117.16 83.8495C117.246 83.7528 117.321 83.6466 117.391 83.538C118.618 83.2289 119.817 82.299 120.278 81.1898C120.363 80.9845 120.367 80.7697 120.318 80.5668C120.491 80.5314 120.659 80.503 120.817 80.4842C121.274 80.4299 122.011 80.4157 122.469 80.6116C123.143 80.5691 123.39 80.9279 123.21 81.6925ZM119.732 78.7449C118.983 78.8841 118.214 79.1626 117.526 79.5732C115.157 79.4623 112.797 79.2121 111.033 81.1473C109.729 82.5775 109.126 85.3175 109.893 87.1465C110.577 88.7749 112.607 89.3271 114.082 89.9737C115.61 90.644 118.488 92.0387 120.031 90.7738C120.799 90.1436 121.099 88.9684 121.724 88.2132C122.462 87.3234 122.943 86.6485 123.52 85.6479C124.418 84.0926 125.61 81.7515 124.515 79.9909C123.595 78.5112 121.23 78.4711 119.732 78.7449Z" fill="#31A787"/>
<path d="M99.6774 86.6131C99.5103 86.7806 99.3395 86.9553 99.166 87.1347C99.3289 86.5376 99.4021 85.9405 99.3856 85.4709C99.3152 83.4837 97.4739 81.7302 96.0234 82.856C96.0866 81.3172 96.2402 79.8281 96.5939 78.2681C96.7834 77.4327 97.1237 76.9796 98.1182 77.3383C98.504 77.4752 99.1382 78.0392 99.475 78.2799C100.518 79.0233 101.767 79.8871 102.321 81.0789C103.281 83.1392 101.077 85.2112 99.6774 86.6131ZM97.6811 86.1151C97.6123 86.4385 97.3212 87.2432 96.9347 87.6586C96.6357 87.2597 96.2668 86.9152 96.055 86.4101L96.0411 86.3724C96.1497 86.1269 96.2643 85.8956 96.3477 85.7116C96.5131 85.341 96.9387 83.9793 97.7332 84.8879C97.8786 85.0531 97.7235 85.9145 97.6811 86.1151ZM101.416 77.343C101.891 77.756 102.223 78.2162 102.455 78.7283C102.077 78.3389 101.655 77.9708 101.167 77.5672C100.634 77.1259 99.9388 76.5028 99.1948 76.0002C99.9899 76.2621 100.839 76.8403 101.416 77.343ZM102.756 76.4911C101.89 75.5518 100.578 74.2774 99.323 74.0367C95.6461 73.3381 94.781 76.9725 94.2962 79.8352C94.2137 80.3213 94.1456 80.8287 94.0933 81.3432C93.1148 83.8118 92.1262 86.8113 93.8371 89.2233C95.8071 91.9986 98.1977 90.5897 100.221 88.6474C100.407 88.468 100.604 88.2792 100.805 88.0834C100.997 88.2958 101.261 88.4208 101.557 88.3524C102.159 88.2132 102.061 87.9677 102.351 87.517C102.864 86.7193 103.397 86.1198 103.765 85.2325C104.387 83.7339 104.835 82.4005 104.562 80.7792C104.25 78.9266 104.083 77.9283 102.756 76.4911Z" fill="#31A787"/>
<path d="M97.2732 102.319C96.3221 103.334 95.4199 104.457 94.2892 105.278C93.5831 105.79 91.6658 106.713 90.7754 106.182C89.9435 105.687 90.2169 102.612 90.3672 101.83C90.5819 100.714 91.0551 99.291 91.5036 98.2196C91.7876 97.5422 92.3054 97.0868 92.7336 96.5157C92.9862 96.1782 93.199 95.5693 93.5615 95.3239C93.9475 95.0619 94.4511 95.102 94.9698 95.1846C95.0384 96.1829 95.6433 97.2897 96.2356 97.7995C96.5129 98.0402 96.9595 98.0261 97.2117 97.7665C97.4196 97.5493 97.5199 97.3464 97.5732 97.1293C97.8332 97.2119 98.1157 97.2473 98.4709 97.2378C98.6837 97.2307 98.8159 97.1481 98.8913 97.0278C98.9985 97.2826 99.0426 97.5918 99.035 98.0119C99.0037 99.7182 98.4294 101.089 97.2732 102.319ZM95.6033 93.6058L95.5467 93.6553C94.8265 93.5161 94.095 93.2305 93.367 93.4005C92.4088 93.6247 92.0827 94.4294 91.5352 95.1563C90.9083 95.987 90.3144 96.5959 89.9583 97.5847C89.5488 98.7199 89.0456 99.9943 88.8139 101.193C88.4708 102.963 88.2627 105.897 89.6819 107.322C90.9123 108.559 93.4665 107.971 94.7773 107.185C95.7202 106.621 96.5221 105.807 97.2753 105.016C98.1831 104.065 99.332 103.095 99.9016 101.887C100.759 100.067 101.139 97.2567 99.8498 95.5693C99.1093 94.5993 96.8342 92.7113 95.6033 93.6058Z" fill="#31A787"/>
<path d="M137.538 106.576C136.619 106.732 135.305 106.237 134.385 106.05C134.134 105.998 133.858 105.942 133.567 105.875C134.169 105.894 134.694 105.637 135.041 105.2C135.278 105.429 135.525 105.649 135.791 105.849C136.849 106.642 138.004 106.614 138.311 105.741C138.464 105.795 138.613 105.831 138.759 105.849C138.497 106.215 138.087 106.484 137.538 106.576ZM131.927 99.6781C131.629 99.0385 131.565 98.3871 132.274 98.0992C132.523 97.9977 132.789 97.9765 133.06 98.0072C132.966 98.2975 133.021 98.6562 133.319 98.9559C133.574 99.2131 133.818 99.4798 134.055 99.7536C133.753 99.8197 133.528 100.11 133.497 100.436C133.061 100.07 132.478 99.7182 131.927 99.6781ZM128.885 102.354C128.886 102.066 128.92 101.778 128.979 101.5C129.061 101.811 129.187 102.121 129.325 102.387C130.019 103.73 131.129 105.016 132.555 105.618C130.766 105.108 128.875 104.2 128.885 102.354ZM130.146 99.3052C130.18 99.4421 130.222 99.5789 130.269 99.7158C130.199 99.7135 130.13 99.7064 130.061 99.7088C129.96 99.7135 129.867 99.7229 129.781 99.7371C129.893 99.586 130.016 99.4421 130.146 99.3052ZM140.845 104.66C140.668 103.558 139.887 102.461 139.32 101.531C138.509 100.202 137.787 99.2297 136.62 98.1818C135.279 96.9759 132.568 95.1917 130.81 96.6832L130.808 96.6856C127.193 98.1582 125.776 103.834 129.593 106.095C130.703 106.753 132.004 107.178 133.24 107.527C134.562 107.898 136.217 108.408 137.594 108.391C139.417 108.368 141.141 106.51 140.845 104.66Z" fill="#31A787"/>
<path d="M107.148 106.819H116.262C118.338 106.819 120.411 106.819 122.488 106.819C123.362 106.819 124.244 106.845 125.118 106.815C125.874 106.793 126.908 106.539 127.608 106.956C127.69 107.001 127.768 107.058 127.839 107.129C128.01 107.291 128.2 107.053 128.039 106.904C127.902 106.77 127.742 106.666 127.571 106.588C126.577 106.126 125.133 106.468 124.128 106.468C121.855 106.468 119.585 106.468 117.311 106.468H107.152L107.148 106.819Z" fill="#FFFFFB"/>
<path d="M528.833 220.901C529.824 218.308 531.597 216.63 532.855 214.232C533.374 213.248 534.086 212.346 534.578 211.365C535.023 210.475 534.95 209.696 535.755 209.087C535.995 208.905 536.328 208.924 536.471 209.236C536.971 210.357 537.85 210.81 538.581 211.69C539.224 212.457 539.588 213.446 540.184 214.253C541.512 216.061 542.964 217.763 544.184 219.676C545.364 221.534 546.619 223.752 547.25 225.904C547.513 226.82 547.521 227.637 547.486 228.595C547.467 229.079 547.316 229.702 547.215 230.294C547.649 229.697 548.067 229.015 548.516 228.559C549.418 227.634 550.32 226.726 551.284 225.874C553.177 224.205 555.287 223.018 557.463 221.852C559.782 220.611 562.152 219.599 564.656 218.893C566.054 218.501 567.425 218.086 568.803 217.628C569.732 217.319 570.692 216.719 571.668 216.753C572.067 216.767 572.009 217.35 571.912 217.59C571.076 219.658 571.172 222.435 570.886 224.618C570.611 226.683 570.456 228.763 570.084 230.816C569.662 233.138 569.279 235.512 568.149 237.568C564.242 244.664 557.722 251.39 549.933 254.739C540.626 258.737 534.311 252.23 529.576 244.244C528.291 242.08 527.687 239.505 527.187 237.018C526.165 231.889 526.982 225.723 528.833 220.901Z" fill="#31A787"/>
<path d="M544.517 269.992C544.493 270.212 544.477 270.438 544.465 270.667C544.629 269.581 544.947 268.578 545.532 267.54C545.425 267.566 545.297 267.625 545.146 267.741C544.796 268.002 544.553 269.697 544.517 269.992ZM543.789 268.505C544.02 267.783 544.306 266.499 545.011 266.114C545.6 265.793 545.91 266.077 546.209 266.461C548.884 262.574 553.358 259.66 557.091 257.314C559.205 255.988 560.936 254.633 563.237 253.666C564.451 253.156 565.669 252.672 566.915 252.261C567.997 251.903 569.116 251.898 570.23 251.716C572.901 251.277 575.576 251.197 578.263 251.072C579.298 251.024 580.424 250.817 580.173 252.318C579.978 253.489 579.139 254.786 578.657 255.83C577.929 257.39 577.152 258.924 576.309 260.415C575.489 261.864 574.589 263.266 573.877 264.783C573.467 265.659 572.969 266.265 572.436 266.914C573.574 267.073 574.637 267.214 575.823 267.59C577.288 268.054 578.8 268.552 580.225 269.126C581.571 269.669 582.653 270.768 583.879 271.571C585.252 272.475 586.59 273.407 587.951 274.332C589.802 275.595 589.36 276.746 587.704 278.087C584.922 280.331 582.08 282.323 579.099 284.239C573.49 287.845 566.692 287.775 560.443 286.476C557.334 285.83 554.651 284.869 551.821 283.305C549.341 281.934 546.675 279.98 545.21 277.388C543.669 274.66 542.762 271.715 543.789 268.505Z" fill="#31A787"/>
<path d="M495.119 286.283C501.805 281.754 509.936 279.76 517.777 280.744C525.88 281.759 533.61 285.95 539.212 292.362C541.129 292.611 543.404 291.808 545.417 291.808C546.398 291.808 547.374 291.822 548.371 291.853C548.422 291.855 548.474 291.853 548.522 291.855C548.625 291.858 548.7 291.888 548.76 291.933C549.86 291.477 550.928 291.013 551.118 290.963C552.742 290.526 554.644 290.13 556.315 289.974C558.356 289.785 560.325 289.521 562.385 289.509C564.323 289.498 565.903 289.776 567.805 290.08C572.243 290.788 574.55 292.901 578.222 295.022C582.653 297.585 585.496 302.412 588.14 307.03C579.243 311.361 572.196 314.766 562.29 312.321C557.137 311.047 551.777 308.651 548.057 304.45C547.069 303.334 545.052 298.562 543.245 299.4C542.078 299.938 541.598 306.341 541.288 307.79C540.442 311.724 538.604 314.896 536.548 318.23C535.734 319.554 534.559 320.656 533.574 321.836C532.415 323.229 531.057 324.494 529.755 325.728C527.178 328.173 524.236 329.957 521.6 332.275C521.425 332.431 521.064 332.478 520.913 332.249C520.401 331.473 520.389 330.665 520.417 329.731C520.473 328.062 520.361 326.448 520.187 324.782C519.857 321.61 519.444 318.681 520.33 315.569C521.215 312.477 522.013 309.51 523.74 306.813C525.662 303.811 526.733 302.284 530.056 301.88C525.848 304.448 520.758 304.561 515.943 304.205C511.194 303.856 506.367 303.082 502.126 300.748C497.882 298.411 494.269 294.286 493.352 289.236C493.281 288.842 493.225 288.424 493.336 288.039C493.499 287.463 493.988 287.076 494.452 286.746C494.67 286.588 494.893 286.434 495.119 286.283Z" fill="#31A787"/>
<path d="M533.475 260.42C524.202 255.506 514.403 250.888 504.077 250.831C503.406 254.662 502.743 258.688 503.848 262.398C504.943 266.065 507.643 268.928 510.59 271.087C516.418 275.354 523.594 277.412 530.612 276.829C534.731 276.487 540.732 274.403 541.137 268.963C541.476 264.378 536.75 262.157 533.475 260.42Z" fill="#31A787"/>
<path d="M540.047 318.042H544.43V250.145H540.047V318.042Z" fill="#31A787"/>
<path d="M542.041 251.289C542.072 251.213 542.103 251.138 542.133 251.062L542.168 251.018C542.84 249.429 543.83 247.983 544.591 246.437C545.255 245.092 545.961 243.855 546.967 242.776C548.004 241.66 548.956 240.391 549.962 239.222C551.072 237.929 552.204 236.683 553.349 235.418C554.362 234.295 555.503 233.313 556.589 232.268C557.795 231.104 558.847 229.766 560.129 228.737C560.74 228.248 561.181 227.585 561.761 227.064C562.376 226.507 563.12 226.205 563.769 225.704C564.737 224.963 565.559 223.597 566.687 223.163C566.822 223.111 566.849 223.323 566.753 223.389C565.708 224.118 564.956 225.339 563.965 226.158C563.166 226.813 562.326 227.191 561.581 227.963C561.166 228.395 560.778 228.827 560.341 229.232C558.041 231.371 555.668 233.785 553.556 236.176C551.652 238.335 549.858 240.504 548.065 242.753C546.921 244.183 545.957 245.431 545.136 247.121C544.379 248.674 543.512 250.163 542.671 251.665C542.371 252.193 541.826 251.837 542.041 251.289Z" fill="#0C7981"/>
<path d="M533.991 217.323C534.017 217.099 534.41 216.854 534.428 217.198C534.498 218.404 534.344 219.584 534.66 220.762C534.873 221.545 534.951 222.138 534.976 222.973C535.068 225.86 535.851 228.698 536.245 231.545C536.466 233.133 536.576 234.594 537.035 236.135C537.374 237.27 537.649 238.33 537.87 239.498C538.105 240.723 538.657 241.492 539.05 242.592C539.22 243.064 539.286 243.805 539.459 244.433C539.539 244.404 539.62 244.419 539.69 244.525C540.058 245.089 540.017 244.978 540.216 245.639C540.348 246.075 539.977 246.852 539.473 246.555C538.959 246.25 538.778 245.719 538.598 245.141C538.238 244.01 538.043 243.151 537.521 242.092C536.925 240.879 536.907 239.533 536.579 238.224C536.201 236.704 535.715 235.351 535.528 233.777C535.153 230.617 534.553 227.509 534.226 224.352C534.098 223.124 534.006 221.923 533.855 220.703C533.715 219.566 533.855 218.459 533.991 217.323Z" fill="#0C7981"/>
<path d="M554.433 264.496C554.468 264.408 554.499 264.323 554.531 264.236C554.601 264.054 554.776 263.787 554.998 263.861C555.045 263.875 555.095 263.892 555.142 263.906C556.38 263.287 557.475 262.003 558.573 261.184C559.367 260.594 560.29 260.241 561.108 259.688C561.855 259.185 562.529 258.556 563.331 258.157C567.144 256.271 571.789 256.833 575.279 254.269C575.617 254.022 575.75 254.562 575.501 254.787C572.214 257.704 567.557 257.25 563.744 259.018C562.662 259.518 561.793 260.415 560.777 261.038C559.869 261.59 559.028 262.072 558.187 262.735C557.163 263.542 556.096 264.859 554.815 265.104C554.511 265.161 554.336 264.765 554.433 264.496Z" fill="#0C7981"/>
<path d="M550.759 272.482C551.941 272.833 553.422 272.902 554.657 273.034C556.574 273.237 558.562 272.959 560.484 272.98C561.964 272.996 563.389 273.451 564.854 273.407C566.414 273.36 567.653 273.336 569.185 273.605C572.241 274.138 575.369 274.129 578.418 274.613C580.137 274.886 581.895 275.25 583.63 275.299C584.924 275.337 586.146 275.67 587.432 275.767C588.028 275.811 587.766 276.947 587.226 276.994V277.001C587.198 277.001 587.174 276.996 587.143 276.996L587.095 276.999L587.075 276.992C585.722 276.952 584.352 276.699 583.01 276.588C581.57 276.468 580.101 276.222 578.672 276.007C575.421 275.521 572.102 275.398 568.855 274.816C567.196 274.516 565.704 274.702 564.052 274.613C562.155 274.509 560.349 274.098 558.42 274.11C556.911 274.12 555.308 274.292 553.819 273.987C552.723 273.763 551.517 273.626 550.564 272.977C550.37 272.845 550.528 272.416 550.759 272.482Z" fill="#0C7981"/>
<path d="M507.541 253.871C507.636 253.972 507.735 254.074 507.83 254.175C508.197 254.501 508.588 254.612 509.017 254.907C509.508 255.24 509.877 255.728 510.324 256.115C511.426 257.069 512.792 257.663 514.03 258.39C516.527 259.861 519.028 261.272 521.661 262.454C524.136 263.568 526.561 264.831 529.058 265.902C531.889 267.118 534.58 267.427 537.535 267.984C537.876 268.047 537.649 268.593 537.411 268.598C531.914 269.402 526.367 265.695 521.478 263.566C518.618 262.322 515.934 260.784 513.217 259.221C512.016 258.532 510.712 257.958 509.639 257.043C509.09 256.573 508.665 256.082 508.061 255.693C507.505 255.334 507.234 255.291 506.867 254.699C506.589 254.253 507.109 253.411 507.541 253.871Z" fill="#0C7981"/>
<path d="M494.603 289.373C494.851 288.955 495.095 288.856 495.493 288.724C496.361 288.433 497.444 288.436 498.363 288.207C500.461 287.678 502.533 286.824 504.663 286.456C507.088 286.038 509.653 286.317 512.1 286.336C515.974 286.364 519.837 287.044 523.462 288.608C525.465 289.472 527.416 290.423 529.43 291.265C531.527 292.141 533.606 293.399 535.427 294.822C535.558 294.926 535.456 295.254 535.281 295.19C533.869 294.692 532.596 293.887 531.265 293.182C529.74 292.37 528.135 291.9 526.563 291.235C524.728 290.461 523.036 289.472 521.121 288.91C519.428 288.414 517.769 288.039 516.04 287.747C514.234 287.438 512.443 287.485 510.612 287.475C508.73 287.464 506.789 287.315 504.915 287.596C503.164 287.86 501.497 288.589 499.782 289.044C498.994 289.255 498.203 289.446 497.411 289.644C497.058 289.734 496.682 289.776 496.332 289.868C496.292 289.878 495.216 289.84 495.595 290.165C495.909 290.437 495.5 291.119 495.146 291.037C494.366 290.85 494.147 290.133 494.603 289.373Z" fill="#0C7981"/>
<path d="M522.339 325.861C523.09 322.354 524.213 318.78 525.454 315.437C525.98 314.006 526.761 313.055 527.704 311.937C528.639 310.832 529.412 309.621 530.388 308.546C532.597 306.112 535.119 303.908 537.159 301.307C538.16 300.028 539.258 298.322 540.992 298.471C541.161 298.487 541.077 298.808 540.933 298.813C538.963 298.895 537.634 301.912 536.382 303.302C534.346 305.562 532.185 307.7 530.226 310.039C528.455 312.152 526.695 314.377 525.877 317.1C525.112 319.633 524.342 322.158 523.587 324.693C523.646 324.766 523.672 324.874 523.631 325.001C523.44 325.591 523.433 325.618 523.131 326.163C522.847 326.68 522.203 326.496 522.339 325.861Z" fill="#0C7981"/>
<path d="M549.369 296.068C549.504 296.443 554.084 296.438 554.453 296.497C555.843 296.717 557.198 296.986 558.609 297.222C560.606 297.557 562.591 297.718 564.576 298.114C566.672 298.532 568.839 298.73 570.951 299.058C572.607 299.315 574.323 299.747 575.86 300.486C577.489 301.27 579.228 301.621 580.849 302.411C582.069 303.006 583.21 303.516 584.474 304C585.18 304.271 586.408 304.595 586.701 305.468C586.844 305.897 586.606 306.412 586.17 306.494C585.362 306.648 584.688 306.863 583.868 306.799C583.357 306.759 583.694 305.944 584.027 305.862C584.363 305.779 584.688 305.673 585.013 305.567C584.268 305.182 583.179 304.96 582.707 304.788C581.396 304.309 580.239 303.488 578.911 303.061C577.469 302.598 576.209 302.058 574.814 301.479C572.928 300.696 571.023 300.42 569.049 300.047C565.38 299.353 561.707 298.966 558.05 298.3C555.102 297.765 552.103 297.529 549.167 296.851C549.084 296.833 549.005 296.755 549.001 296.661C548.997 296.54 548.989 296.422 548.985 296.304C548.973 296.115 549.266 295.773 549.369 296.068Z" fill="#0C7981"/>
<path d="M561.738 317.902H543.939H541.815H524.013C518.689 336.648 527.339 350.867 527.339 350.867H541.815H543.939H558.412C558.412 350.867 567.061 336.648 561.738 317.902Z" fill="#4CB050"/>
<path d="M494.628 75.6476H487.695V61.2646C487.695 59.3496 489.248 57.7952 491.16 57.7952C493.075 57.7952 494.628 59.3496 494.628 61.2646V75.6476Z" fill="#646464"/>
<path d="M491.603 57.7921H490.734V1.25732H491.603V57.7921Z" fill="#3B3838"/>
<path d="M487.269 71.6659L470.254 99.2232C469.924 99.7558 470.306 100.443 470.93 100.443H511.38C512.011 100.443 512.389 99.7477 512.053 99.2155L494.603 71.6659H487.269Z" fill="#F3C16E"/>
</svg>
