<svg width="531" height="430" viewBox="0 0 531 430" fill="none" xmlns="http://www.w3.org/2000/svg">
<path d="M62.9587 227.582H93.9162L149.91 411.892H162.844L111.857 206.276H44.4767L0.140625 411.892H14.0098L62.9587 227.582Z" fill="#F7C108"/>
<path d="M79.471 158.898L71.9312 159.267L69.7422 114.446L77.2823 114.078L79.471 158.898Z" fill="#31A787"/>
<path d="M77.2823 114.078L69.7422 114.446L71.9643 106.124L72.9373 102.489L74.2598 106.015L77.2823 114.078Z" fill="#EC8872"/>
<path d="M74.2642 106.015L71.9688 106.124L72.9418 102.489L74.2642 106.015Z" fill="#31A787"/>
<path d="M80.2688 174.346L72.7266 174.034L74.597 129.198L82.1393 129.513L80.2688 174.346Z" fill="#6361B5"/>
<path d="M82.136 129.513L74.5938 129.198L77.5585 121.113L78.8562 117.578L79.8546 121.207L82.136 129.513Z" fill="#EC8872"/>
<path d="M79.8586 121.207L77.5625 121.113L78.8603 117.578L79.8586 121.207Z" fill="#6361B5"/>
<path d="M74.9241 169.812L67.6601 171.867L55.4531 128.686L62.7172 126.631L74.9241 169.812Z" fill="#3B3838"/>
<path d="M62.7172 126.631L55.4531 128.686L55.7479 120.076L55.8781 116.314L57.9594 119.452L62.7172 126.631Z" fill="#EC8872"/>
<path d="M57.9615 119.452L55.75 120.076L55.8802 116.314L57.9615 119.452Z" fill="#3B3838"/>
<path d="M345.744 416.639C345.744 421.126 342.106 424.764 337.62 424.764C333.129 424.764 329.492 421.126 329.492 416.639C329.492 412.151 333.129 408.513 337.62 408.513C342.106 408.513 345.744 412.151 345.744 416.639Z" fill="#171F3D"/>
<path d="M299.029 416.639C299.029 421.126 295.391 424.764 290.903 424.764C286.416 424.764 282.781 421.126 282.781 416.639C282.781 412.151 286.416 408.513 290.903 408.513C295.391 408.513 299.029 412.151 299.029 416.639Z" fill="#171F3D"/>
<path d="M317.309 387.076V256.727H311.217V387.076L287.578 414.656L292.202 418.622L314.263 392.884L336.324 418.622L340.948 414.656L317.309 387.076Z" fill="#171F3D"/>
<path d="M440.389 102.309C438.348 100.434 436.131 98.7637 433.72 97.498C433.527 97.4874 433.33 97.4772 433.125 97.4673C434.275 98.3903 435.457 99.2415 436.615 100.019C437.769 100.794 439.041 101.595 440.389 102.309Z" fill="#15203D"/>
<path d="M435.997 101.491C434.172 100.285 432.298 98.9088 430.579 97.3621C426.931 97.2391 422.952 97.1949 421.966 97.1949H329.022C319.376 97.1949 309.296 104.526 309.296 114.173V264.012H226.447C213.828 264.012 203.006 273.883 202.77 286.502C202.533 299.355 212.885 309.831 225.69 309.831H393.059C408.723 309.831 421.986 296.991 421.986 281.324L439.985 114.173C439.985 110.488 440.903 107.15 441.14 104.415C439.302 103.568 437.559 102.52 435.997 101.491Z" fill="#171F3D"/>
<path d="M336.879 286.677C336.645 299.633 346.997 310.191 359.805 310.191H402.273C425.691 310.191 444.845 290.883 444.845 267.288V110.742C444.845 110.246 444.825 109.759 444.785 109.272C443.508 94.2752 421.729 92.7938 418.028 107.378C417.75 108.467 417.604 109.59 417.604 110.742V250.032C417.604 257.754 411.392 264.015 403.729 264.015H360.558C347.941 264.015 337.117 273.961 336.879 286.677Z" fill="#F16F67"/>
<path d="M367.605 166.804C359.217 166.97 350.833 167.163 342.445 167.291C323.708 167.572 305.01 167.166 286.309 166.292C280.794 179.729 243.646 190.456 240.188 205.991C242.489 205.47 276.886 209.642 279.282 209.642C279.584 209.642 279.878 209.642 280.173 209.648C289.336 209.782 297.461 204.627 301.236 196.654C303.498 191.87 306.68 187.767 311.497 185.088C316.247 182.446 321.863 181.724 327.318 181.056L363.076 176.675C364.806 176.463 366.504 175.838 367.721 174.651C370.142 172.3 369.528 169.399 367.605 166.804Z" fill="#35324C"/>
<path d="M299.344 81.8587C293.99 84.0166 289.135 87.0883 284.74 90.8042C278.971 96.8081 274.167 103.653 270.784 109.46C269.636 111.434 268.56 113.468 268.014 115.657C267.294 118.539 267.535 121.544 267.675 124.501C268.998 152.191 262.807 173.828 247.953 197.551C247.087 198.935 246.379 200.964 247.353 202.054C248.216 201.726 249.073 201.389 249.93 201.043C257.961 197.773 265.771 193.639 272.26 187.815C278.819 181.928 283.439 174.421 285.702 165.925C287.622 153.248 289.576 140.571 292.553 128.109C294.863 118.469 296.951 108.705 300.788 99.4768C302.739 94.7867 305.135 90.2584 308.15 86.0919C310.415 82.9535 313.614 80.545 315.559 77.3654C310.053 78.4697 304.557 79.7517 299.344 81.8587Z" fill="#3B3838"/>
<path d="M278.551 425.588L280.603 429.688L336.163 401.874L333.339 396.166L310.736 350.515L288.628 361.585L302.883 390.052L280.64 412.51C277.637 415.546 276.621 419.952 277.881 423.93C278.063 424.502 278.281 425.048 278.551 425.588Z" fill="#646464"/>
<path d="M289.938 360.93L302.766 386.552L324.76 375.541L312.045 349.859L289.938 360.93Z" fill="#F7C108"/>
<path d="M278.553 425.588L280.605 429.688L336.165 401.874L333.34 396.166L277.883 423.93C278.064 424.502 278.282 425.048 278.553 425.588Z" fill="#150077"/>
<path d="M133.883 415.795V420.38H196.015L196.046 414.012L196.268 363.071H171.546V394.911L141.605 405.035C137.561 406.402 134.679 409.89 134.026 414.012C133.933 414.603 133.883 415.19 133.883 415.795Z" fill="#646464"/>
<path d="M173.008 363.071V391.726H197.602L197.73 363.071H173.008Z" fill="#F7C108"/>
<path d="M133.883 415.795V420.38H196.015L196.046 414.012H134.026C133.933 414.603 133.883 415.19 133.883 415.795Z" fill="#150077"/>
<path d="M329.437 204.241C325.866 204.241 256.12 204.734 213.351 205.041C194.09 205.178 177.454 218.531 173.148 237.304L155.672 387.317L199.116 392.488L230.145 263.198L351.844 264.878C368.455 265.106 383.079 253.983 387.293 237.916L396.669 202.174L325.3 205.278L329.437 204.241Z" fill="#3B3838"/>
<path d="M391.97 209.412C390.092 209.412 312.571 209.818 258.091 210.102C231.971 210.24 213.456 235.621 221.291 260.537L279.784 392.488L324.346 374.614L284.738 267.379L347.097 268.023C365.854 268.216 386.236 255.013 392.526 237.342L395.111 208.379L391.97 209.412Z" fill="#3B3838"/>
<path d="M331.858 234.022C331.698 234.106 331.537 234.191 331.367 234.278C331.603 234.125 331.842 233.981 332.078 233.841C332.012 233.897 331.934 233.953 331.858 234.022Z" fill="#EC8872"/>
<path d="M287.892 189.113C279.338 198.328 267.424 204.024 255.605 207.803C253.925 208.343 252.22 208.846 250.508 209.32L388.387 211.284L378.103 162.838L299.577 173.121C297.97 178.358 291.642 185.069 287.892 189.113Z" fill="#F16F67"/>
<path d="M504.801 58.3098C504.42 61.7869 500.521 71.5298 499.344 74.707C502.924 79.0933 510.385 74.9936 515.119 77.9155C515.775 78.3203 516.435 78.72 517.105 79.1135C519.863 71.5474 522.67 63.9988 525.617 56.5036C528.446 49.2883 530.49 42.1493 530.311 41.1243C529.897 38.6784 530.207 39.4497 529.897 38.6784C529.798 38.444 529.686 38.2198 529.556 38.0056C529.417 37.7738 529.066 37.812 528.967 38.064C528.711 38.7189 528.455 39.372 528.204 40.0179C526.704 43.8899 525.28 47.5472 523.752 50.5819C523.69 50.7122 523.582 50.8047 523.452 50.8496C523.317 50.8959 523.164 50.8906 523.029 50.8218C522.76 50.6875 522.656 50.3632 522.791 50.0955C524.291 47.1075 525.702 43.4735 527.198 39.6262C527.481 38.8968 527.768 38.1574 528.056 37.4171C528.253 36.9145 528.114 36.3346 527.692 35.9954L527.656 35.964L527.642 35.9555C526.991 35.4331 526.016 35.6954 525.706 36.4725C525.455 37.0987 525.203 37.7383 524.952 38.3883C523.366 42.4089 521.731 46.5667 520.006 49.119C519.939 49.2196 519.84 49.2892 519.737 49.3265C519.58 49.3808 519.4 49.3633 519.256 49.264C519.009 49.0965 518.942 48.7605 519.112 48.5134C520.77 46.06 522.382 41.9589 523.941 37.9925C524.291 37.1081 524.633 36.2411 524.97 35.403C525.212 34.7983 524.943 34.1143 524.359 33.8223L524.336 33.8088C523.69 33.4854 522.904 33.7953 522.638 34.4691C520.792 39.071 518.82 43.6595 516.745 48.1397C516.678 48.2781 516.561 48.376 516.431 48.4227C516.305 48.4667 516.157 48.4636 516.026 48.4021C515.752 48.2767 515.636 47.9551 515.761 47.6842C517.886 43.1016 519.903 38.404 521.781 33.692C521.924 33.3282 521.646 32.9329 521.255 32.9418C520.86 32.9508 520.487 33.0227 520.15 33.18C518.214 34.0783 516.822 38.0734 515.932 39.849C514.234 43.2305 511.386 47.9632 508.233 53.1437C508.619 52.8153 505.008 44.0305 503.867 44.566C503.467 44.7533 503.265 45.2209 503.261 45.6602C503.256 46.0995 503.413 46.5227 503.553 46.9382C504.801 50.5734 505.228 54.4908 504.801 58.3098Z" fill="#F7C108"/>
<path d="M368.067 122.242C356.827 117.886 345.618 112.468 335.968 105.156C329.562 100.298 322.555 93.7132 320.871 85.4833C319.206 77.3299 324.379 70.22 330.105 64.9304C334.55 60.8281 339.591 57.3567 344.937 54.3284C352.395 54.1283 359.836 53.6343 367.236 52.6022C399.418 48.1159 423.073 72.9063 445.257 92.6722C453.002 99.5753 464.242 111.094 472.566 104.863C482.317 97.5628 496.791 72.3337 500.22 66.1689C500.317 65.9776 500.423 65.7903 500.52 65.6012C512.061 67.6791 517.473 72.0469 518.489 76.7338C515.14 86.1597 508.632 102.152 503.83 110.932C499.774 118.342 495.219 125.484 490.199 132.285C474.722 153.248 453.811 147.215 434.115 134.692C426.984 130.162 421.302 123.479 414.051 119.092C408.091 115.481 406.231 115.194 405.074 122.701C404.561 126.055 404.34 129.512 404.274 132.966C391.956 130.302 379.819 126.795 368.067 122.242Z" fill="#4CB050"/>
<path d="M349.292 37.2038V62.5147C349.292 68.8491 343.789 74.0276 337.458 74.0276C331.12 74.0276 325.617 68.8491 325.617 62.5147V37.2038C325.617 30.8693 330.958 25.6908 337.292 25.6908C340.46 25.6908 343.583 26.982 345.665 29.0744C347.754 31.1566 349.292 34.0365 349.292 37.2038Z" fill="#F7C108"/>
<path d="M336.948 45.0242L325.617 51.7026V41.0985C328.575 43.0316 331.278 44.6376 336.948 45.0242Z" fill="#150077"/>
<path d="M322.546 5.24016C323.188 3.01538 324.21 1.30666 325.646 0.800873C327.04 0.312176 328.564 0.397606 330.04 0.486458C335.618 0.828209 343.129 0.0387611 348.378 2.25671C352.114 3.839 353.648 7.1061 354.318 11.5625C355.121 16.8698 355.367 22.2866 355.053 27.6588C354.882 30.5432 354.386 33.7556 352.315 35.4439C349.735 37.5524 345.935 36.1068 343.748 33.4856C342.897 32.4638 342.193 31.2814 341.721 29.9827C341.185 28.4995 340.956 26.8899 340.474 25.3828C339.561 22.5292 337.549 19.9763 334.934 19.3304C331.565 18.5 325.83 23.1033 323.472 20.1335C321.562 17.7242 321.114 10.2023 322.546 5.24016Z" fill="#150077"/>
<path d="M334.361 44.7083L343.375 41.801C351.923 33.9078 343.921 34.0029 349.95 33.9078L349.291 19.8095C349.291 11.7295 342.417 4.9707 334.337 4.9707H334.317C326.24 4.9707 319.695 11.7295 319.695 19.8095V33.8467C319.695 36.5773 321.448 43.8422 334.361 44.7083Z" fill="#F7C108"/>
<path d="M343.278 29.9747C345.981 31.5354 349.432 30.6105 350.997 27.9074C352.554 25.2076 351.629 21.753 348.929 20.1923C346.223 18.6316 342.772 19.5598 341.211 22.2596C339.65 24.9628 340.578 28.4174 343.278 29.9747Z" fill="#150077"/>
<path d="M354.309 16.7819C353.844 13.7894 351.61 9.66958 349.256 7.80099C345.362 4.70602 340.689 2.4719 335.739 1.9185C332.303 1.54273 328.729 2.05857 325.583 3.46941C325.361 6.27401 324.948 8.97272 325.057 11.6578C330.639 12.1223 335.302 12.4332 336.952 12.1975C337.973 21.578 342.23 21.2672 346.694 22.6678C350.848 23.9488 355.139 22.0085 354.309 16.7819Z" fill="#150077"/>
<path d="M331.822 23.6885C331.241 23.6885 330.766 23.2129 330.766 22.6325C330.766 22.0553 331.241 21.5797 331.822 21.5797C332.402 21.5797 332.878 22.0553 332.878 22.6325C332.878 23.2129 332.402 23.6885 331.822 23.6885Z" fill="#150077"/>
<path d="M327.102 32.2959C327.5 32.2959 327.877 32.1982 328.21 32.0061C328.828 31.6381 329.167 30.9737 329.112 30.2279L328.32 30.2865C328.356 30.7327 328.167 31.1105 327.806 31.3222C327.405 31.5599 326.705 31.6283 325.936 31.1235L325.5 31.7879C326.018 32.1233 326.575 32.2959 327.102 32.2959Z" fill="#150077"/>
<path d="M325.32 27.9573H327.219V27.1655H326.109V21.3152H325.32V27.9573Z" fill="#150077"/>
<path d="M322.134 23.6907C321.555 23.6907 321.078 23.2173 321.078 22.6377C321.078 22.0581 321.555 21.5815 322.134 21.5815C322.717 21.5815 323.19 22.0581 323.19 22.6377C323.19 23.2173 322.717 23.6907 322.134 23.6907Z" fill="#150077"/>
<path d="M348.35 36.5833C351.087 36.5833 353.328 34.3462 353.328 31.6086V28.6667C353.328 25.9291 351.087 23.6887 348.35 23.6887C345.615 23.6887 343.375 25.9291 343.375 28.6667V31.6086C343.375 34.3462 345.615 36.5833 348.35 36.5833Z" fill="#150077"/>
<path d="M343.185 31.8964C345.884 33.4569 349.338 32.5288 350.902 29.8295C352.459 27.1268 351.534 23.6728 348.835 22.1123C346.132 20.5519 342.678 21.48 341.118 24.1793C339.557 26.882 340.482 30.336 343.185 31.8964Z" fill="#F7C108"/>
<path d="M329.696 0.719718C327.336 -0.3795 321.469 -0.208384 319.254 1.1607C317.042 2.52979 315.587 5.05406 315.518 7.65729C315.492 8.63803 315.657 9.64509 316.127 10.5074C317.065 12.2286 319.086 13.1303 321.041 13.2488C322.999 13.364 324.924 12.821 326.807 12.2845C328.195 11.8896 329.614 11.4782 330.779 10.6291C331.947 9.78003 332.829 8.39449 332.671 6.95958C332.526 5.6267 334.511 4.5571 333.586 3.58623C332.694 2.64827 334.761 1.7136 333.872 0.77564L329.696 0.719718Z" fill="#150077"/>
<path d="M397.775 208.842C397.72 208.158 397.672 207.477 397.635 206.793C396.911 207.224 396.028 207.293 395.164 207.29C395.164 207.593 395.168 207.88 395.179 208.149C395.241 210.341 396.565 209.897 397.775 208.842Z" fill="#4CB050"/>
<path d="M400.399 62.6815C396.042 58.9013 390.178 56.3725 382.512 55.5961C374.481 54.782 366.434 54.1112 358.369 53.5836C340.302 52.4039 322.2 51.9516 304.102 52.2456C301.988 52.2795 299.791 52.2343 297.552 52.1853C288.775 52.0044 279.409 51.8235 272.17 56.3611C263.961 61.4792 259.702 70.6073 257.019 79.5884C254.238 88.9012 247.846 201.397 251.23 203.427C261.474 209.573 286.024 202.25 286.024 202.25C286.981 202.681 288.002 203.015 289.084 203.234C304.295 208.305 322.313 208.093 337.788 206.778C356.5 205.191 375.845 206.859 394.663 207.284C394.828 207.287 394.998 207.29 395.164 207.29C395.164 195.858 400.565 161.014 402.068 150.978V150.971C403.429 141.919 404.401 133.265 406.421 124.284C407.978 117.399 409.391 110.469 410.367 103.52C412.632 87.4879 410.729 71.6098 400.399 62.6815Z" fill="#4CB050"/>
<path d="M364.443 52.7676L328.691 82.1855C328.691 82.1855 311.259 52.8093 310.172 52.1945C328.274 52.0695 346.376 52.264 364.443 52.7676Z" fill="#FFFEFE"/>
<path d="M500.227 66.1658C501.167 64.4778 501.275 64.2212 500.227 66.1658V66.1658Z" fill="#A1DCFF"/>
<path d="M514.409 62.9463L513.512 62.7229C514.035 60.6288 513.785 57.3204 512.294 55.0504C511.362 53.6351 510.087 52.784 508.5 52.5202L508.654 51.6105C510.474 51.913 512.004 52.9282 513.064 54.5439C514.774 57.152 514.963 60.7278 514.409 62.9463Z" fill="#FFA300"/>
<path d="M163.942 57.8434C164.329 61.319 168.229 71.0619 169.403 74.2408C165.825 78.6282 158.358 74.5281 153.627 77.4479C152.972 77.8538 152.313 78.2535 151.644 78.647C148.884 71.0806 146.074 63.533 143.132 56.0384C140.297 48.8218 138.257 41.6833 138.432 40.659C138.851 38.2108 138.539 38.9821 138.851 38.2108C138.944 37.9766 139.06 37.7549 139.191 37.5394C139.332 37.3083 139.681 37.3458 139.781 37.5987C140.037 38.2514 140.29 38.9071 140.54 39.5504C142.045 43.4226 143.463 47.0793 144.99 50.1146C145.056 50.2458 145.168 50.3395 145.296 50.3832C145.43 50.43 145.58 50.4238 145.718 50.3551C145.983 50.2208 146.092 49.896 145.958 49.6306C144.453 46.6421 143.045 43.0073 141.549 39.1601C141.265 38.4294 140.977 37.6924 140.69 36.9523C140.49 36.4464 140.634 35.8687 141.052 35.5284L141.093 35.4971L141.102 35.4878C141.758 34.9663 142.732 35.2286 143.041 36.0061C143.291 36.6307 143.541 37.2708 143.797 37.9204C145.38 41.9424 147.013 46.1019 148.74 48.6532C148.809 48.7531 148.906 48.8218 149.012 48.8593C149.168 48.9155 149.346 48.8968 149.493 48.7968C149.74 48.6313 149.805 48.2941 149.637 48.0474C147.978 45.5929 146.364 41.4928 144.803 37.5269C144.456 36.6432 144.116 35.775 143.778 34.9382C143.535 34.3323 143.803 33.6454 144.384 33.355L144.409 33.3424C145.059 33.0208 145.843 33.3299 146.111 34.0013C147.95 38.6042 149.924 43.1915 152.004 47.6727C152.069 47.8101 152.182 47.91 152.316 47.9568C152.444 48.0005 152.588 47.9974 152.722 47.9349C152.993 47.81 153.109 47.4884 152.984 47.2167C150.858 42.6357 148.843 37.936 146.967 33.2269C146.82 32.8615 147.101 32.4681 147.494 32.4774C147.888 32.4837 148.259 32.5587 148.597 32.7148C150.533 33.611 151.922 37.6081 152.815 39.3818C154.514 42.7637 157.359 47.4978 160.516 52.6784C160.129 52.3474 163.742 43.5631 164.882 44.1002C165.278 44.2876 165.481 44.756 165.484 45.1932C165.491 45.6335 165.334 46.0551 165.191 46.4704C163.945 50.1084 163.52 54.0243 163.942 57.8434Z" fill="#F7C108"/>
<path d="M253.513 118.871C253.975 118.412 254.44 117.962 254.915 117.516C259.989 112.732 265.489 108.394 270.822 103.907C277.239 98.5013 283.597 92.9865 289.418 86.9347C289.608 86.7348 289.799 86.535 289.989 86.3351C290.042 86.282 290.07 86.2477 290.089 86.2289C290.102 86.2165 290.133 86.1821 290.205 86.1072C290.548 85.7356 290.892 85.3671 291.232 84.9924C291.903 84.2554 292.562 83.5091 293.212 82.7534C294.455 81.3013 295.657 79.8118 296.79 78.2691C297.849 76.8264 298.851 75.34 299.76 73.7974C299.994 73.4008 300.219 73.0042 300.441 72.6014C300.463 72.5608 300.45 72.5857 300.438 72.6139C300.453 72.5857 300.478 72.5358 300.519 72.4546C300.606 72.2829 300.694 72.1142 300.781 71.9425C301.14 71.2211 301.478 70.4904 301.784 69.7441C302.077 69.029 302.34 68.3014 302.571 67.5644C302.689 67.1803 302.792 66.79 302.898 66.4028L302.914 66.3434L302.917 66.3247C302.952 66.1592 302.986 65.9937 303.02 65.8313C303.155 65.1318 303.251 64.4229 303.304 63.7141C303.333 63.3362 303.336 62.9615 303.351 62.5868V62.5181C303.345 62.3682 303.339 62.2183 303.329 62.0684C303.283 61.3846 303.189 60.7038 303.045 60.0324C303.002 59.8232 302.945 59.6202 302.898 59.4141L302.892 59.3797C302.789 59.0737 302.692 58.7708 302.574 58.471C302.305 57.7715 301.968 57.1158 301.612 56.4569L301.581 56.3975L301.537 56.3351C301.44 56.1914 301.35 56.0447 301.25 55.901C301.031 55.5825 300.8 55.2702 300.563 54.9673C300.054 54.3272 299.498 53.7307 298.92 53.1499C298.88 53.1093 298.855 53.0843 298.842 53.0718C298.817 53.0468 298.777 53.0156 298.723 52.9657C298.57 52.8314 298.421 52.694 298.264 52.5628C297.924 52.2693 297.571 51.9851 297.215 51.7072C267.203 49.8742 244.676 73.329 223.488 92.2059C215.741 99.1102 204.505 110.63 196.18 104.397C186.428 97.0961 171.954 71.8675 168.529 65.7033C168.429 65.5128 168.326 65.3254 168.226 65.1349C156.684 67.2147 151.273 71.5802 150.258 76.2674C153.605 85.695 160.113 101.686 164.916 110.468C168.972 117.878 173.525 125.016 178.546 131.818C194.026 152.781 214.935 146.747 234.633 134.225C241.156 130.081 246.468 124.136 252.879 119.792C253.026 119.458 253.241 119.143 253.513 118.871Z" fill="#4CB050"/>
<path d="M168.528 65.7002C167.479 63.7547 167.588 64.0108 168.528 65.7002V65.7002Z" fill="#A1DCFF"/>
<path d="M154.333 62.4775L155.229 62.2558C154.708 60.1605 154.957 56.8504 156.45 54.5833C157.378 53.1656 158.655 52.3162 160.241 52.0507L160.088 51.142C158.264 51.4449 156.741 52.4598 155.679 54.0743C153.964 56.6849 153.78 60.2604 154.333 62.4775Z" fill="#FFA300"/>
<path d="M392.284 229.035H98.0703V212.222H392.284V229.035Z" fill="#F7C108"/>
<path d="M331.018 191.141C328.392 190.448 325.041 188.661 323.277 187.378C321.375 185.992 318.724 183.212 317.555 180.795C316.442 178.497 315.95 176.433 316.052 174.487C316.184 172.014 317.37 169.828 319.15 168.782C320.748 167.845 322.842 167.789 324.902 168.623C326.682 169.341 328.317 170.372 330.011 171.28C330.298 171.437 333.904 173.701 332.005 174.34C331.5 174.509 330.975 174.219 330.512 173.941C327.389 172.036 323.925 168.479 320.223 170.493C312.367 174.762 324.278 186.513 328.561 188.421C329.083 188.652 329.624 188.865 330.192 188.908C330.919 188.968 331.648 188.752 332.378 188.777C335.499 188.88 336.575 192.615 331.018 191.141Z" fill="white"/>
<path d="M339.485 200.739H361.695C361.733 200.727 361.772 200.717 361.807 200.702C362.077 200.365 362.376 199.968 362.706 199.509C363.548 198.326 364.562 196.752 365.57 194.813C365.587 194.784 365.598 194.759 365.612 194.737C365.685 194.594 365.759 194.45 365.829 194.307C365.9 194.172 365.963 194.038 366.033 193.904C366.047 193.873 366.061 193.844 366.075 193.813C366.208 193.548 366.335 193.273 366.468 192.992C366.675 192.536 366.879 192.077 367.075 191.612C367.128 191.48 367.181 191.349 367.233 191.218C367.472 190.64 367.697 190.053 367.911 189.457C367.942 189.369 367.97 189.279 368.002 189.188C368.044 189.079 368.079 188.97 368.114 188.864C368.283 188.383 368.434 187.899 368.581 187.412L368.588 187.396C368.641 187.215 368.697 187.027 368.746 186.843L368.753 186.831C368.799 186.662 368.848 186.49 368.893 186.322C368.9 186.294 368.907 186.266 368.914 186.237C369.315 184.76 369.652 183.19 369.901 181.528C369.932 181.325 369.96 181.126 369.988 180.923L369.995 180.894C370.02 180.701 370.045 180.51 370.066 180.317C370.094 180.117 370.118 179.911 370.139 179.708C370.16 179.508 370.181 179.302 370.199 179.099C370.217 178.933 370.231 178.771 370.241 178.605C370.248 178.543 370.255 178.477 370.259 178.415C370.269 178.268 370.283 178.121 370.29 177.975C370.294 177.94 370.294 177.909 370.297 177.875V177.862C370.406 176.179 370.42 174.418 370.318 172.585C370.308 172.41 370.297 172.235 370.287 172.06C370.217 171.058 370.118 170.034 369.978 168.987H331.408C331.075 174.793 331.394 180.557 332.946 186.078C334.308 190.928 336.038 197.954 339.485 200.739Z" fill="white"/>
<path d="M354.282 165.875C353.21 165.875 352.142 165.56 351.349 164.926C350.383 164.148 349.913 162.88 350.306 161.778C350.978 159.889 353.578 159.245 355.255 157.931C358.64 155.276 357.243 150.564 353.687 148.862C348.94 146.589 342.368 145.964 337.27 144.066C334.104 142.888 330.807 141.421 329.13 138.763C327.319 135.887 327.899 132.184 329.757 129.328C331.61 126.469 334.564 124.311 337.574 122.38C341.345 119.957 345.852 116.642 344.699 112.645C343.984 110.161 341.292 108.623 339 107.066C336.704 105.51 334.426 103.193 335.073 100.699C335.583 98.7389 337.726 97.4866 339.806 96.6871C342.955 95.4808 346.365 94.8972 349.789 94.8972C356.316 94.8972 362.871 97.0197 367.639 100.985C369.801 102.786 371.636 104.972 372.528 107.484C374.926 114.258 369.956 121.393 364.006 126.147C361.533 128.121 358.81 129.936 357.02 132.421C352.092 139.266 358.534 141.877 364.024 145.053C367.144 146.858 370.296 149.761 370.607 152.866C370.749 154.258 370.317 155.695 369.051 157.088C367.409 158.892 364.947 159.948 362.474 160.704C360.005 161.462 357.43 161.984 355.088 163.011C354.766 163.152 354.434 163.314 354.236 163.576C353.709 164.282 354.367 165.191 354.993 165.828C354.756 165.859 354.519 165.875 354.282 165.875Z" fill="#F7F7F5"/>
<path d="M86.2178 201.208H62.9543C61.9222 201.208 61.0859 200.371 61.0859 199.341V149.489H88.0861V199.341C88.0861 200.371 87.2495 201.208 86.2178 201.208Z" fill="#F16F67"/>
<path d="M390.577 229.326H421.536L476.347 428.705H490.461L439.477 206.277H372.097L327.758 428.705H343.248L390.577 229.326Z" fill="#F7C108"/>
<path d="M268.688 200.74H115.089C115.051 200.74 115.017 200.721 115.008 200.683C114.333 198.41 95.8871 130.622 92.5015 118.178C92.2317 117.188 92.9674 116.21 93.9944 116.198C106.979 116.014 178.87 114.974 205.76 114.034C207.505 113.978 209.07 113.925 210.419 113.871C212.833 113.787 214.569 113.725 215.471 113.693C215.89 113.678 216.252 113.965 216.339 114.371L232.833 190.5H256.341C259.361 190.5 262.171 191.571 264.366 193.395C266.555 195.209 268.129 197.773 268.688 200.74Z" fill="#E3E7E5"/>
<path d="M157.763 153.924C156.002 153.924 154.562 155.363 154.562 157.124C154.562 158.886 156.002 160.325 157.763 160.325C159.524 160.325 160.964 158.886 160.964 157.124C160.964 155.363 159.524 153.924 157.763 153.924Z" fill="white"/>
<path d="M469.342 214.357H0V201.054H469.342V214.357Z" fill="white"/>
</svg>
